<svg version="1.1" id="Layer_1" xmlns="http://www.w3.org/2000/svg" xmlns:xlink="http://www.w3.org/1999/xlink" x="0px" y="0px" viewBox="0 0 57.6 57.6">
<path class="st0" d="M28.8,0C12.9,0,0,12.9,0,28.8c0,15.9,12.9,28.8,28.8,28.8s28.8-12.9,28.8-28.8S44.7,0,28.8,0z M37.7,41.7
	l-1.9-6.9l-1-3.6l-2.1,3.6l-4,6.9H24l4-6.9l4-6.9l1.4-2.4l-1.2-4.6l-0.3-1.1l-0.7,1.1l-4,6.9l-4,6.9l-4,6.9h-4.8l4-6.9l4-6.9l4-6.9
	l3.9-6.8l0.1-0.1h4.2l0.2,0.7l1.5,5.7l0.1,0.5h4.4l-3,5.1l0.5,1.8l1.9,6.9l1.9,6.9H37.7z" fill="#fff" />
</svg>