<svg width="21" height="21" viewBox="0 0 21 21" fill="none" xmlns="http://www.w3.org/2000/svg">
<path d="M15.8298 6.71652H14.0603C13.8546 6.71652 13.6583 6.62783 13.5213 6.47371L12.8041 5.66348C12.6973 5.54293 12.5432 5.47319 12.3822 5.47319C12.2212 5.47319 12.0671 5.54207 11.9603 5.66348L11.3447 6.35919C11.1432 6.5865 10.8539 6.71738 10.5499 6.71738H0.866794C0.591264 7.5035 0.411309 8.33353 0.339844 9.19542H9.48139C9.64241 9.19542 9.79567 9.12998 9.90674 9.01374L10.7583 8.12602C10.8642 8.01495 11.0114 7.95209 11.1647 7.95209H11.2C11.361 7.95209 11.5152 8.02098 11.6219 8.14238L12.3392 8.95261C12.4761 9.10674 12.6715 9.19542 12.8782 9.19542H20.3398C20.2684 8.33353 20.0884 7.5035 19.8129 6.71738H15.8298V6.71652Z" fill="white"/>
<path d="M5.87269 14.4033C6.0337 14.4033 6.18696 14.3379 6.29803 14.2216L7.14959 13.3339C7.2555 13.2229 7.40273 13.16 7.556 13.16H7.5913C7.75232 13.16 7.90644 13.2289 8.0132 13.3503L8.73044 14.1605C8.86735 14.3146 9.0628 14.4033 9.26945 14.4033H19.3814C19.7602 13.6206 20.0375 12.7803 20.2028 11.9012H10.4973C10.2915 11.9012 10.0952 11.8125 9.95827 11.6584L9.24103 10.8481C9.13427 10.7276 8.98014 10.6578 8.81913 10.6578C8.65811 10.6578 8.50399 10.7267 8.39723 10.8481L7.78159 11.5438C7.58011 11.7712 7.2908 11.902 6.98686 11.902H0.478333C0.64365 12.782 0.920905 13.6215 1.29976 14.4042H5.87269V14.4033Z" fill="white"/>
<path d="M13.0462 4.00895C13.2072 4.00895 13.3605 3.94352 13.4715 3.82728L14.3231 2.93956C14.429 2.82848 14.5762 2.76563 14.7295 2.76563H14.7648C14.9258 2.76563 15.0799 2.83451 15.1867 2.95591L15.9039 3.76614C16.0409 3.92027 16.2363 4.00895 16.443 4.00895H18.3656C16.5342 1.57482 13.6214 0 10.3408 0C7.06031 0 4.14745 1.57482 2.31604 4.00895H13.0471H13.0462Z" fill="white"/>
<path d="M9.18365 16.8843H6.55407C6.34828 16.8843 6.15197 16.7956 6.01506 16.6415L5.29783 15.8313C5.19106 15.7107 5.03693 15.641 4.87592 15.641C4.71491 15.641 4.56079 15.7099 4.45402 15.8313L3.83838 16.527C3.6369 16.7543 3.3476 16.8852 3.04365 16.8852H3.00232C4.83459 18.8483 7.44265 20.077 10.34 20.077C13.2374 20.077 15.8454 18.8483 17.6777 16.8852H9.18365V16.8843Z" fill="white"/>
</svg>
