<svg width="17" height="16" viewBox="0 0 17 16" fill="none" xmlns="http://www.w3.org/2000/svg">
<mask id="mask0_3611_5128" style="mask-type:luminance" maskUnits="userSpaceOnUse" x="3" y="0" width="11" height="16">
<path d="M13.5 0.727539H3.5V15.273H13.5V0.727539Z" fill="white"/>
</mask>
<g mask="url(#mask0_3611_5128)">
<path fill-rule="evenodd" clip-rule="evenodd" d="M9.44728 1.87122C9.97596 1.87122 10.4718 1.94209 10.931 2.07353C10.4815 1.02587 9.54815 0.727539 8.50943 0.727539C7.46868 0.727539 6.53372 1.02705 6.08523 2.07971C6.541 1.94364 7.03476 1.87122 7.56164 1.87122H9.44728ZM7.44071 2.92303C4.93032 2.92303 3.5 4.89793 3.5 7.33409V9.8366C3.5 10.0803 3.70351 10.273 3.95455 10.273H13.0454C13.2965 10.273 13.5 10.0803 13.5 9.8366V7.33409C13.5 4.89793 11.8368 2.92303 9.32636 2.92303H7.44071ZM8.49645 7.35574C9.37508 7.35574 10.0874 6.64346 10.0874 5.76482C10.0874 4.88619 9.37508 4.17392 8.49645 4.17392C7.61781 4.17392 6.90554 4.88619 6.90554 5.76482C6.90554 6.64346 7.61781 7.35574 8.49645 7.35574ZM3.5 11.7439C3.5 11.5003 3.70351 11.3028 3.95455 11.3028H13.0454C13.2965 11.3028 13.5 11.5003 13.5 11.7439V14.3906C13.5 14.8778 13.093 15.2728 12.5909 15.2728H4.40909C3.90701 15.2728 3.5 14.8778 3.5 14.3906V11.7439Z" fill="white"/>
</g>
</svg>
