<svg width="16" height="16" viewBox="0 0 16 16" fill="none" xmlns="http://www.w3.org/2000/svg">
<path d="M8 0C12.4173 0 16 3.58272 16 8C16 12.4173 12.4173 16 8 16C3.58272 16 0 12.4173 0 8C0 3.58272 3.58272 0 8 0Z" fill="white"/>
<path d="M8.00265 10.8128C6.44873 10.8128 5.19049 9.55388 5.19049 7.99996C5.19049 6.44604 6.44937 5.1878 8.00265 5.1878C9.39465 5.1878 10.5505 6.20284 10.7732 7.53148H13.6065C13.3671 4.6438 10.9511 2.375 8.00265 2.375C4.89737 2.375 2.37769 4.89468 2.37769 7.99996C2.37769 11.1052 4.89737 13.6249 8.00265 13.6249C10.9511 13.6249 13.3678 11.3561 13.6065 8.46844H10.7706C10.5479 9.79772 9.39465 10.8128 8.00265 10.8128Z" fill="#060C1B"/>
</svg>
