<?xml version="1.0" encoding="UTF-8"?>
<svg width="41px" height="40px" viewBox="0 0 41 40" version="1.1" xmlns="http://www.w3.org/2000/svg" xmlns:xlink="http://www.w3.org/1999/xlink">
    <title>test-on-device</title>
    <defs>
        <polygon id="path-1" points="-6.90449192e-16 -3.91933299e-15 30 -3.91933299e-15 30 25 -6.90449192e-16 25"></polygon>
    </defs>
    <g id="Page-1" stroke="none" stroke-width="1" fill="none" fill-rule="evenodd">
        <g id="SLICES" transform="translate(-460.817360, -148.000000)"></g>
        <g id="test-device" transform="translate(1.000000, 1.000000)">
            <g id="Group-3" transform="translate(0.000000, 13.000000)">
                <mask id="mask-2" fill="white">
                    <use xlink:href="#path-1"></use>
                </mask>
                <g id="Clip-2"></g>
                <path d="M17.9168985,21.3990708 L17.4454549,22.6727774 C17.4276459,22.7079418 17.38065,22.7729613 17.2347152,22.7729613 L8.81056675,22.7729613 C8.70159267,22.7729613 8.63042737,22.7394517 8.59912029,22.673329 L8.03545153,21.6659749 C6.90443913,19.6507149 2.46611297,11.7427434 2.43091901,11.6813782 L2.42498268,11.6711047 C2.24067373,11.3624862 2.23770557,11.0523507 2.41629019,10.7495239 C2.63473304,10.3785749 3.07670702,10.1196 3.49104879,10.1196 C3.79196424,10.1196 4.03429375,10.2641185 4.21125295,10.5490873 L6.50140465,14.128125 L6.50896641,14.1397085 C6.74493557,14.4921101 7.1430231,14.7025444 7.57383112,14.7025444 C8.10845426,14.7025444 8.57707106,14.3884788 8.76795237,13.902177 L12.700489,3.85407775 C12.8300282,3.52153366 13.1108732,3.12514221 13.7128454,3.12514221 C14.1226643,3.12514221 14.5302217,3.32709569 14.7512087,3.63964439 C15.0035734,3.9965277 14.9352349,4.38333515 14.8333279,4.64506796 L13.0706616,9.28999803 C12.8641621,9.83470014 13.1479753,10.4480071 13.7028102,10.6566487 C13.9784256,10.7606937 14.2948886,10.7514545 14.57114,10.6314821 C14.847038,10.5116477 15.0656929,10.2887335 15.1707801,10.0207263 L17.5955593,3.85407775 C17.7250985,3.52153366 18.0057315,3.12514221 18.6075624,3.12514221 C19.0174519,3.12514221 19.42508,3.32716464 19.646279,3.64005808 C19.8986437,3.9966656 19.8302346,4.3832662 19.7286809,4.64417162 L17.8612808,9.43031054 C17.7189502,9.79553675 17.7625539,10.2110273 17.9781699,10.5419855 C18.1907471,10.8679104 18.5361851,11.0708292 18.9255801,11.0986849 C19.4078363,11.1335734 19.8479022,11.5056256 19.9717878,11.9826192 C20.0919278,12.4471329 20.4676128,12.8145655 20.9285265,12.9184726 C21.1623048,12.9713569 21.3580624,13.1392493 21.5103576,13.4171853 C21.8731805,14.0807566 21.8540994,15.1601631 21.4617362,16.1671725 C20.9809641,17.401302 20.1216801,19.2429468 18.2203581,20.9784781 C18.0899002,21.0969335 17.9877811,21.2384182 17.9168985,21.3990708 M23.5236925,12.367565 C23.1639791,11.7097165 22.6441261,11.2192088 22.0107761,10.9370669 C21.6875288,10.2003401 21.1050616,9.59503121 20.3804759,9.23297668 L21.8622972,5.43578238 C21.9863948,5.11640767 22.062083,4.79158594 22.0889378,4.46476467 L26.1662079,4.46462677 L25.7429616,4.88122046 C25.5273456,5.09206845 25.4086189,5.37269346 25.4086189,5.67145223 C25.4086189,5.97055575 25.5273456,6.25118076 25.7434563,6.4619598 C26.1814727,6.88855119 26.9200512,6.89041283 27.3566542,6.46561413 L29.6668057,4.2128227 C30.1111825,3.77919845 30.1111118,3.07315418 29.666311,2.63877148 L27.2958775,0.326062824 C27.0802615,0.115766437 26.7936215,0 26.4888898,0 C26.1837342,0 25.8969528,0.115973286 25.6821849,0.326062824 C25.4665688,0.53649711 25.3477716,0.814088341 25.3477716,1.10795169 C25.3477716,1.40188398 25.4666395,1.67954416 25.6844463,1.89190904 L26.0415449,2.23713986 L21.421666,2.23713986 C20.7657721,1.40767575 19.7036635,0.898620594 18.6077037,0.898620594 C17.6746397,0.898620594 16.830974,1.25371121 16.2107687,1.89121954 C15.5565709,1.26846644 14.6471109,0.898758493 13.7128454,0.898620594 C12.2924369,0.898620594 11.086867,1.7283605 10.567014,3.06308754 L7.35757906,11.2639571 L6.15632008,9.38825126 C5.5638177,8.44329651 4.59259155,7.90142133 3.49104879,7.90142133 C2.26293498,7.90142133 1.0647855,8.58815969 0.438573247,9.65115622 C-0.146720723,10.6452721 -0.146084688,11.7881812 0.439845318,12.787813 L0.530374366,12.9488104 C2.79091508,16.968781 6.24797985,23.1170889 6.5577998,23.6693755 C6.97821924,24.4905656 7.83990596,25.0000345 8.81056675,25.0000345 L17.2344325,25.0000345 C18.2614884,25.0000345 19.1435283,24.4485063 19.5404851,23.5580218 L19.563877,23.5154109 L19.9775121,22.4127684 C22.0934608,20.4103331 23.054581,18.3434988 23.5952818,16.9543016 C24.2303986,15.3246769 24.2036144,13.6098995 23.5236925,12.367565" id="Fill-1" fill="#121212" mask="url(#mask-2)"></path>
            </g>
            <path d="M34.741293,0 L22.258707,0.00119615384 C20.4618632,0.00119615384 19,1.43848053 19,3.20534048 L19,11.5032707 C19,12.1355436 19.5231879,12.649749 20.1662417,12.649749 C20.8092239,12.649749 21.3324118,12.1355436 21.3324118,11.5041854 L21.3327696,11.1534309 L21.3433608,11.1533606 L21.3433608,3.20534048 C21.3433608,2.70900699 21.753982,2.30519953 22.2587786,2.30519953 L34.741293,2.3041441 C35.2460895,2.3041441 35.6567108,2.70795156 35.6567108,3.20421468 L35.6567108,28.7950113 C35.6567108,29.2912041 35.246018,29.6950116 34.7403627,29.6950116 L24.8123877,29.706762 C24.1695486,29.706762 23.6464323,30.2211785 23.6464323,30.853381 C23.6464323,31.4855835 24.1695486,32 24.8124593,32 L34.741293,31.9990853 C36.5381368,31.9990853 38,30.5618009 38,28.7950113 L38,3.20414432 C38,1.4374251 36.5381368,0 34.741293,0" id="Fill-4" fill="#121212"></path>
            <path d="M29.9261939,25 L27.0738718,25 C26.4817553,25 26,25.4481683 26,25.9990215 C26,26.5509143 26.4817553,27 27.0738718,27 L29.9261939,27 C30.5183104,27 31,26.5509143 31,25.9990215 C31,25.4481683 30.5183104,25 29.9261939,25" id="Fill-6" fill="#000000"></path>
        </g>
    </g>
</svg>