<svg width="12" height="12" viewBox="0 0 12 12" fill="none" xmlns="http://www.w3.org/2000/svg">
<path fill-rule="evenodd" clip-rule="evenodd" d="M9.51621 2.48325C8.94899 1.91603 8.04143 1.91603 7.47421 2.48325L6.56665 3.39081L5.71582 2.5967L6.6801 1.63242C7.7011 0.611419 9.28932 0.611419 10.3103 1.63242L10.367 1.68914C11.388 2.71014 11.388 4.29837 10.367 5.31937L9.40277 6.28364L8.60866 5.48953L9.57293 4.52525C10.1402 3.95803 10.1402 3.1072 9.51621 2.48325Z" fill="white"/>
<path fill-rule="evenodd" clip-rule="evenodd" d="M2.53952 9.51684C3.10674 10.0841 4.0143 10.0841 4.58152 9.51684L5.5458 8.55256L6.28319 9.40339L5.31891 10.3677C4.29791 11.3887 2.70968 11.3887 1.68868 10.3677L1.63196 10.3109C0.610961 9.28995 0.610961 7.70172 1.63196 6.68072L2.59624 5.71645L3.39035 6.51056L2.42607 7.47484C1.85885 8.04206 1.85885 8.89289 2.53952 9.51684Z" fill="white"/>
<path fill-rule="evenodd" clip-rule="evenodd" d="M3.9572 3.05045L8.89203 8.042L8.09792 8.83612L3.16309 3.84456L3.9572 3.05045Z" fill="white"/>
</svg>
