<svg width="20" height="15" viewBox="0 0 20 15" fill="none" xmlns="http://www.w3.org/2000/svg">
<path d="M16.3914 1.69126C15.1816 1.13737 13.9044 0.744428 12.5924 0.522461C12.4129 0.843392 12.2505 1.17359 12.1058 1.51166C10.7083 1.30108 9.2872 1.30108 7.88973 1.51166C7.74498 1.17362 7.58255 0.843431 7.40309 0.522461C6.09032 0.746302 4.81228 1.14018 3.60125 1.69415C1.19704 5.25123 0.545292 8.71996 0.871164 12.1394C2.27913 13.1797 3.85505 13.9709 5.53041 14.4785C5.90766 13.9711 6.24147 13.4328 6.52831 12.8694C5.9835 12.6659 5.45766 12.4149 4.95688 12.1192C5.08868 12.0236 5.21758 11.9251 5.34213 11.8295C6.79929 12.5148 8.38969 12.8701 9.99993 12.8701C11.6102 12.8701 13.2006 12.5148 14.6577 11.8295C14.7837 11.9323 14.9126 12.0308 15.043 12.1192C14.5412 12.4154 14.0144 12.6669 13.4687 12.8709C13.7552 13.434 14.089 13.9718 14.4666 14.4785C16.1434 13.9729 17.7205 13.1821 19.1287 12.1409C19.5111 8.17539 18.4755 4.73852 16.3914 1.69126ZM6.94108 10.0365C6.03298 10.0365 5.28275 9.21239 5.28275 8.19857C5.28275 7.18474 6.00691 6.3534 6.93818 6.3534C7.86945 6.3534 8.61389 7.18474 8.59796 8.19857C8.58203 9.21239 7.86656 10.0365 6.94108 10.0365ZM13.0588 10.0365C12.1492 10.0365 11.4019 9.21239 11.4019 8.19857C11.4019 7.18474 12.1261 6.3534 13.0588 6.3534C13.9915 6.3534 14.7302 7.18474 14.7142 8.19857C14.6983 9.21239 13.9843 10.0365 13.0588 10.0365Z" fill="white"/>
</svg>
