<?xml version="1.0" encoding="UTF-8"?>
<svg width="41px" height="41px" viewBox="0 0 41 41" version="1.1" xmlns="http://www.w3.org/2000/svg" xmlns:xlink="http://www.w3.org/1999/xlink">
    <title>export-documentation</title>
    <defs>
        <polygon id="path-1" points="0 0 10 0 10 35 0 35"></polygon>
    </defs>
    <g id="Page-1" stroke="none" stroke-width="1" fill="none" fill-rule="evenodd">
        <g id="Web-Justinmind-2021" transform="translate(-2087.000000, -408.000000)">
            <g id="Group-2" transform="translate(1780.643678, 267.611870)">
                <g id="SLICES" transform="translate(154.351242, 141.228950)"></g>
            </g>
            <g id="Group-10" transform="translate(2091.000000, 409.000000)">
                <path d="M14.0072559,23 L5.15497039,23 C4.49657481,23 4,23.4299313 4,24.0001511 C4,24.5514845 4.4817311,25 5.07385723,25 L13.9261428,25 C14.5182689,25 15,24.5514845 15,24.0001511 C15,23.467402 14.5361138,23 14.0072559,23" id="Fill-1" fill="#000000"></path>
                <path d="M6.04246285,27 C5.44812944,27 5,27.4299313 5,28.0001511 C5,28.5514845 5.43480489,29 5.96925104,29 L11.030749,29 C11.5651951,29 12,28.5514845 12,28.0001511 C12,27.467402 11.5813017,27 11.1039608,27 L6.04246285,27 Z" id="Fill-3" fill="#000000"></path>
                <g id="Group-7" transform="translate(24.000000, 3.000000)">
                    <mask id="mask-2" fill="white">
                        <use xlink:href="#path-1"></use>
                    </mask>
                    <g id="Clip-6"></g>
                    <path d="M7.75462523,0 L5.05573821,0 C4.51388966,0 4.07306499,0.449816504 4.07306499,1.00280472 C4.07306499,1.55640162 4.51500719,2.00675073 5.05871826,2.00675073 L7.75462523,1.9866642 C7.9200928,1.9866642 8.05471679,2.1241504 8.05471679,2.29313593 L8.05471679,32.7049772 C8.05471679,32.8738105 7.92121032,33.0112206 7.75723278,33.0112206 L0.982598712,32.9932645 C0.440824671,32.9932645 0,33.443081 0,33.9959931 C0,34.5496661 0.440824671,35.0000152 0.982747715,35.0000152 L7.75462523,34.9983413 C8.99276368,34.9983413 10.0000224,33.9695915 10.0000224,32.7049772 L10.0000224,2.29313593 C10.0000224,1.02874982 8.99276368,0 7.75462523,0" id="Fill-5" fill="#000000" mask="url(#mask-2)"></path>
                </g>
                <path d="M24.3975451,30.2706121 L19.4404397,34.4470189 L19.4404397,30.2706121 L24.3975451,30.2706121 Z M8.24973151,1.97993189 C9.03481653,1.97993189 9.76509402,2.34447419 10.2316151,2.96221356 L6.27032161,2.96129144 C6.74256308,2.34424366 7.47199024,1.97993189 8.24973151,1.97993189 L8.24973151,1.97993189 Z M28,29.3036221 L28,20.4305826 L28,20.3537398 L27.9996908,20.3537398 C27.9984539,19.0374224 27.9963668,9.58959872 27.9955165,5.5189276 L27.9954391,5.28117594 C27.9954391,4.00420209 26.9503082,2.96521043 25.6656939,2.96521043 L12.4681334,2.96252093 C11.8356437,1.18814356 10.1475099,0 8.24973151,0 C6.3868939,0 4.66088186,1.21480801 4.03264378,2.96098407 L2.32982251,2.96075354 C1.0451309,2.96075354 0,3.99966836 0,5.27664221 L0,35.6838808 C0,36.9609315 1.0451309,38 2.32982251,38 L6.23437591,37.9994621 L6.31152388,37.99854 L13.4078236,37.9979252 C13.9700452,37.9979252 14.4273673,37.5430926 14.4273673,36.9839075 C14.4273673,36.4254908 13.9698133,35.9711961 13.4072825,35.9711961 L4.88590967,35.9803404 L4.79531105,35.9894847 L2.32858567,35.99325 C2.15751505,35.99325 2.01844771,35.8544718 2.01844771,35.6838808 L2.01844771,5.27664221 C2.01844771,5.10597433 2.15805617,4.96704252 2.32974521,4.96704252 L10.7331542,4.96865622 L10.7331542,9.88436775 C10.7331542,10.4281843 10.288046,10.8705684 9.74089831,10.8705684 C9.19359603,10.8705684 8.74833316,10.4281843 8.74833316,9.88436775 L8.74833316,6.91961837 C8.74833316,6.37372704 8.30167885,5.92949874 7.75267591,5.92949874 C7.20344107,5.92949874 6.75655484,6.37372704 6.75655484,6.91961837 L6.75655484,9.88436775 C6.75655484,11.5198902 8.09535826,12.8505003 9.74089831,12.8505003 C11.3862838,12.8505003 12.7248553,11.5198902 12.7248553,9.88436775 L12.7248553,4.96896359 L25.666467,4.97172993 C25.8376922,4.97172993 25.9770687,5.11043121 25.9770687,5.28086857 L25.9493171,28.3098909 L19.2193544,28.3098909 C18.2104784,28.3098909 17.3897569,29.0987592 17.3897569,30.0682849 L17.3897569,36.7313252 C17.3897569,37.1267583 17.6369705,37.4820794 18.0198502,37.6365335 C18.4023434,37.7895275 18.8419632,37.7067678 19.1376455,37.4279821 L27.6943456,29.9882147 C27.8886843,29.8014099 27.9972171,29.5582024 28,29.3036221 L28,29.3036221 Z" id="Fill-8" fill="#000000"></path>
            </g>
        </g>
    </g>
</svg>