<?xml version="1.0" encoding="UTF-8"?>
<svg width="41px" height="41px" viewBox="0 0 41 41" version="1.1" xmlns="http://www.w3.org/2000/svg" xmlns:xlink="http://www.w3.org/1999/xlink">
    <title>dynamic-panels</title>
    <defs>
        <polygon id="path-1" points="4.90680015e-16 0 10 0 10 7 4.90680015e-16 7"></polygon>
        <polygon id="path-3" points="0 0 38 0 38 36 0 36"></polygon>
    </defs>
    <g id="Page-1" stroke="none" stroke-width="1" fill="none" fill-rule="evenodd">
        <g id="Web-Justinmind-2021" transform="translate(-2187.000000, -408.000000)">
            <g id="Group-2" transform="translate(1780.643678, 267.611870)">
                <g id="SLICES" transform="translate(154.351242, 141.228950)"></g>
            </g>
            <g id="dynamic-panels" transform="translate(2189.000000, 410.000000)">
                <g id="Group-3">
                    <mask id="mask-2" fill="white">
                        <use xlink:href="#path-1"></use>
                    </mask>
                    <g id="Clip-2"></g>
                    <path d="M2.98763176,4.42071987 L9.12446681,4.42071987 C9.6072402,4.42071987 10,4.00735631 10,3.49915545 C10,2.99196185 9.6072402,2.57921815 9.12446681,2.57921815 L2.98689515,2.57921815 L3.94205575,1.57350887 C4.10212084,1.40800848 4.19515453,1.17014042 4.19721703,0.92034021 C4.19721703,0.674259111 4.10565656,0.436236084 3.94566514,0.266939106 C3.60586751,-0.0890881761 3.05105378,-0.0890881761 2.70882534,0.267403995 L0.252235064,2.85063568 L0.238828785,2.86574456 C0.168850951,2.94524054 0.110437875,3.03930302 0.0753016359,3.12825173 C-0.0220780444,3.35349032 -0.0250981404,3.63776977 0.0667569741,3.8503014 C0.112795023,3.9664461 0.176217038,4.0675594 0.255476143,4.15123937 L2.70970927,6.7313718 C2.87500428,6.90462033 3.09466102,7 3.32831332,7 C3.56145,7 3.77992816,6.90500774 3.94323433,6.73284395 C4.10639317,6.56331452 4.19714337,6.3319549 4.19891123,6.08060506 C4.19891123,5.8331293 4.10904496,5.60130479 3.94551781,5.42759137 L2.98763176,4.42071987 Z" id="Fill-1" fill="#000000" mask="url(#mask-2)"></path>
                </g>
                <path d="M8.82193891,20.0430106 C8.37119661,20.0430106 8.00448159,19.6847431 8.00448159,19.2444307 L8.01081146,13.7554334 C8.01081146,13.7408311 8.0119244,13.7265004 8.0134547,13.7067362 L8.01408073,13.6982465 C8.0146372,13.6904359 8.014985,13.6824895 8.014985,13.6738639 C8.02771429,13.5524944 8.06882366,13.4371697 8.13733927,13.3312176 C8.26734503,13.1299765 8.48096071,12.9959743 8.72260866,12.9636453 C8.75759684,12.9590948 8.79279369,12.9569215 8.82722539,12.9569215 L17.1727746,12.9569215 C17.2061629,12.9569215 17.2415685,12.9590269 17.2705746,12.9626266 L17.2819822,12.9643245 C17.5209869,12.996246 17.732655,13.1299765 17.8626607,13.3311497 C17.9322197,13.4387997 17.9722857,13.5526303 17.9847368,13.6742714 C17.985015,13.6826253 17.9854324,13.6909793 17.9859888,13.698654 L17.9871018,13.7136639 C17.9880756,13.7275871 17.9891885,13.7414423 17.9891885,13.755773 L17.9955184,19.2441591 C17.9955184,19.6474562 17.6896675,19.9810015 17.2956854,20.0346567 C17.2300217,20.0216844 17.161993,20.0147567 17.0923644,20.0147567 L16.1249379,20.0180168 L15.9849156,20.0147567 C15.9571616,20.0147567 15.9298945,20.0165905 15.9026273,20.0188318 L8.82193891,20.0430106 Z M17.5480454,11.0245863 L17.528708,11.0221413 C17.4778604,11.0158928 17.426178,11.0110027 17.3677485,11.0069956 L17.349524,11.0057051 C17.2931812,11.0023771 17.237534,11.0008829 17.185017,11.0002717 L17.1767395,11 L8.82193891,11.0001358 C8.76434406,11.0001358 8.70723612,11.0023771 8.6494326,11.0057051 L8.62508695,11.0075389 C8.5729177,11.0110706 8.52130493,11.0160286 8.47010951,11.0222771 L8.45668462,11.0239751 C7.05611424,11.2016486 6,12.3760867 6,13.7559768 L6,19.2447703 C6,20.7640282 7.26604329,22 8.82221714,22 L16.1240336,21.9961966 L17.1781307,22 C18.7341654,22 20,20.7640282 20,19.2447703 L20,13.7559768 C20,12.3785317 18.945903,11.2042974 17.5480454,11.0245863 L17.5480454,11.0245863 Z" id="Fill-4" fill="#000000"></path>
                <path d="M24.9799668,15 L33.0200332,15 C33.5604396,15 34,14.551315 34,13.9999306 C34,13.4485462 33.5604396,13 33.0200332,13 L24.9799668,13 C24.4396284,13 24,13.4485462 24,13.9999306 C24,14.551315 24.4396284,15 24.9799668,15" id="Fill-6" fill="#000000"></path>
                <path d="M25.0052316,20 L29.9947684,20 C30.5491071,20 31,19.551315 31,18.9999306 C31,18.4485462 30.5491071,18 29.9947684,18 L25.0052316,18 C24.4509626,18 24,18.4485462 24,18.9999306 C24,19.551315 24.4509626,20 25.0052316,20" id="Fill-8" fill="#000000"></path>
                <g id="Group-12" transform="translate(0.000000, 2.000000)">
                    <mask id="mask-4" fill="white">
                        <use xlink:href="#path-3"></use>
                    </mask>
                    <g id="Clip-11"></g>
                    <path d="M37.9960874,2.86988187 C37.9438736,1.83435892 37.3742304,0.908761141 36.4723992,0.39378258 C36.0212413,0.136154153 35.5086593,0 34.9899142,0 L14.7455596,0 C14.1558342,0 13.6761456,0.482209728 13.6761456,1.07462292 C13.6761456,1.66710568 14.1558342,2.14917627 14.7455596,2.14917627 L34.9899142,2.14813267 C35.2901091,2.14813267 35.5658591,2.30174962 35.7274865,2.55909976 C35.8017216,2.6773041 35.844379,2.80211788 35.8576749,2.93541954 C35.8580211,2.94467274 35.8583673,2.9539955 35.8590598,2.96241382 L35.8602371,2.97925046 C35.8612758,2.99441736 35.862453,3.00951467 35.862453,3.02495986 L35.862453,32.9749775 C35.862453,33.4585091 35.4710571,33.8518743 34.9899142,33.8518743 L3.01067439,33.851596 C2.52980855,33.851596 2.13855107,33.4582309 2.13855107,32.9746992 L2.13889732,8.74371259 C2.13889732,8.15122983 1.65913947,7.66929839 1.06941403,7.66929839 C0.479757847,7.66929839 0,8.15122983 0,8.74371259 L0,32.975395 C0,34.6431268 1.35049618,36 3.01060514,36 L34.9899142,36 C36.6496769,36 38.0000346,34.6429181 38.0000346,32.9749775 L38.0000346,3.02516857 C38.0000346,2.97319762 37.9987881,2.92122667 37.9960874,2.86988187" id="Fill-10" fill="#000000" mask="url(#mask-4)"></path>
                </g>
                <path d="M13,28.5 C13,29.3270564 13.6728672,30 14.5,30 C15.3270564,30 16,29.3270564 16,28.5 C16,27.6729436 15.3270564,27 14.5,27 C13.6728672,27 13,27.6729436 13,28.5" id="Fill-13" fill="#000000"></path>
                <path d="M19.5,27 C18.6729436,27 18,27.6729436 18,28.5 C18,29.3270564 18.6729436,30 19.5,30 C20.3270564,30 21,29.3270564 21,28.5 C21,27.6729436 20.3270564,27 19.5,27" id="Fill-15" fill="#000000"></path>
                <path d="M23,28.5 C23,29.3270564 23.6728672,30 24.5,30 C25.3270564,30 26,29.3270564 26,28.5 C26,27.6729436 25.3270564,27 24.5,27 C23.6728672,27 23,27.6729436 23,28.5" id="Fill-17" fill="#000000"></path>
            </g>
        </g>
    </g>
</svg>