<?xml version="1.0" encoding="UTF-8"?>
<svg width="41px" height="40px" viewBox="0 0 41 40" version="1.1" xmlns="http://www.w3.org/2000/svg" xmlns:xlink="http://www.w3.org/1999/xlink">
    <title>emulators</title>
    <g id="Page-1" stroke="none" stroke-width="1" fill="none" fill-rule="evenodd">
        <g id="SLICES" transform="translate(-517.817360, -148.000000)"></g>
        <g id="emulators" transform="translate(2.566469, 2.473145)">
            <g id="Group-14" transform="translate(11.433531, 11.526855)">
                <path d="M7.92614083,14 L5.07385917,14 C4.48174841,14 4,14.4482087 4,14.9989875 C4,15.5508567 4.48174841,16 5.07385917,16 L7.92614083,16 C8.51825159,16 9,15.5508567 9,14.9989875 C9,14.4482087 8.51825159,14 7.92614083,14" id="Fill-10" fill="#000000"></path>
                <path d="M1.80703668,16.0155739 L1.80703668,2.98549534 C1.80703668,2.34706511 2.32098524,1.82768117 2.95278863,1.82768117 L10.0472819,1.82646932 C10.6790148,1.82646932 11.1928928,2.34592455 11.1928928,2.98442606 L11.1928928,16.0145047 C11.1928928,16.6529349 10.6790148,17.1723901 10.0472114,17.1723901 L2.95264757,17.1735307 C2.32098524,17.1735307 1.80703668,16.6540754 1.80703668,16.0155739 M10.0472819,0 L2.95264757,0.00114056315 C1.32454427,0.00114056315 0,1.33987656 0,2.98549534 L0,16.0156452 C0,17.661264 1.3246148,19 2.95278863,19 L10.0472819,18.9989307 C11.6753852,18.9989307 13,17.6601234 13,16.0145047 L13,2.98435478 C13,1.338736 11.6753852,0 10.0472819,0" id="Fill-12" fill="#121212"></path>
            </g>
            <line x1="0" y1="8.45003521" x2="35.6189548" y2="8.45003521" id="Rectangle-Copy-8" stroke="#121212" stroke-width="2"></line>
            <path d="M4,0 L31.6189548,0 C33.8280938,-4.05812251e-16 35.6189548,1.790861 35.6189548,4 L35.6189548,30 C35.6189548,32.209139 33.8280938,34 31.6189548,34 L4,34 C1.790861,34 6.87906391e-13,32.209139 6.8567374e-13,30 L6.8567374e-13,4 C6.85403199e-13,1.790861 1.790861,4.05812251e-16 4,0 Z" id="Rectangle-Copy-7" stroke="#121212" stroke-width="2" transform="translate(17.809477, 17.000000) rotate(-180.000000) translate(-17.809477, -17.000000) "></path>
            <circle id="Oval-Copy-7" fill="#121212" cx="4.86100643" cy="4.40836971" r="1.1066119"></circle>
            <circle id="Oval-Copy-6" fill="#121212" cx="8.86100643" cy="4.40836971" r="1.1066119"></circle>
            <circle id="Oval-Copy-8" fill="#121212" cx="12.8610064" cy="4.40836971" r="1.1066119"></circle>
        </g>
    </g>
</svg>