<?xml version="1.0" encoding="UTF-8"?>
<svg width="41px" height="41px" viewBox="0 0 41 41" version="1.1" xmlns="http://www.w3.org/2000/svg" xmlns:xlink="http://www.w3.org/1999/xlink">
    <title>intercative-html</title>
    <defs>
        <polygon id="path-1" points="0 0 13 0 13 17 0 17"></polygon>
    </defs>
    <g id="Page-1" stroke="none" stroke-width="1" fill="none" fill-rule="evenodd">
        <g id="Web-Justinmind-2021" transform="translate(-2137.000000, -408.000000)">
            <g id="Group-2" transform="translate(1780.643678, 267.611870)">
                <g id="SLICES" transform="translate(154.351242, 141.228950)"></g>
            </g>
            <g id="intercative-html" transform="translate(2138.259881, 414.019331)">
                <line x1="0" y1="8.45003521" x2="35.6189548" y2="8.45003521" id="Rectangle-Copy-2" stroke="#121212" stroke-width="2"></line>
                <path d="M23.4548621,0 L32.6189548,0 C34.8280938,-4.05812251e-16 36.6189548,1.790861 36.6189548,4 L36.6189548,26.5 C36.6189548,28.709139 34.8280938,30.5 32.6189548,30.5 L5,30.5 C2.790861,30.5 1,28.709139 1,26.5 L1,9.95467841 L1,9.95467841" id="Rectangle" stroke="#121212" stroke-width="2" transform="translate(18.809477, 15.250000) rotate(-180.000000) translate(-18.809477, -15.250000) "></path>
                <circle id="Oval" fill="#121212" cx="4.86100643" cy="4.40836971" r="1.1066119"></circle>
                <circle id="Oval" fill="#121212" cx="8.86100643" cy="4.40836971" r="1.1066119"></circle>
                <circle id="Oval" fill="#121212" cx="12.8610064" cy="4.40836971" r="1.1066119"></circle>
                <g id="Group-3" transform="translate(23.740119, 17.980669)">
                    <mask id="mask-2" fill="white">
                        <use xlink:href="#path-1"></use>
                    </mask>
                    <g id="Clip-2"></g>
                    <path d="M7.26802021,8.56705289 L7.2674961,8.56722938 C6.94726608,8.64117783 6.67656426,8.86593523 6.54335347,9.16817084 C6.40926916,9.47084767 6.42438094,9.82479425 6.58379714,10.1147639 L8.75080925,14.0604167 L7.9733823,14.4993423 L5.78278532,10.5671908 C5.62170945,10.2781918 5.33135358,10.0796428 5.00579513,10.0361386 C4.96107124,10.0302262 4.91538649,10.0272259 4.87005114,10.0272259 C4.58904187,10.0272259 4.31537012,10.1430903 4.119179,10.3452572 L2.60878693,11.9027633 L2.19710005,3.13528333 L9.37310022,8.08347592 L7.26802021,8.56705289 Z M12.5422069,7.70305615 L1.64093405,0.186257973 C1.30943571,-0.0427351389 0.886567857,-0.0618840812 0.537686594,0.136047152 C0.188019169,0.333184189 -0.0175185411,0.706897418 0.00117464624,1.11140779 L0.626522909,14.4313944 C0.646613718,14.8521417 0.910589476,15.2205603 1.29842944,15.3700456 C1.328653,15.3818703 1.35948803,15.3921948 1.38805192,15.400225 C1.75737339,15.5063825 2.15421054,15.399872 2.42351473,15.1223447 L4.63918154,12.8377082 L6.65760902,16.4604763 C6.84314327,16.7933326 7.19377157,17 7.57270169,17 C7.75133519,17 7.92804695,16.9534954 8.08353234,16.8655162 L10.6871265,15.3956363 C11.1904449,15.1113142 11.372223,14.4656331 11.0924367,13.9562889 L9.09584705,10.3214313 L12.1832803,9.61194979 C12.5902502,9.51841117 12.9035794,9.19023183 12.9817589,8.77530867 C13.0590648,8.36126795 12.8865459,7.94034419 12.5422069,7.70305615 L12.5422069,7.70305615 Z" id="Fill-1" fill="#000000" mask="url(#mask-2)"></path>
                </g>
            </g>
        </g>
    </g>
</svg>