<svg width="18" height="19" viewBox="0 0 18 19" fill="none" xmlns="http://www.w3.org/2000/svg">
<path d="M2.18239 3.59359C2.29415 3.45323 2.41255 3.31811 2.53102 3.18307C2.53634 3.17642 2.54837 3.17503 2.55368 3.16838C2.56431 3.15502 2.58166 3.14691 2.59229 3.13355L2.60292 3.12019C2.68551 3.04396 2.77335 2.96102 2.87462 2.88871C3.23304 2.61686 3.60496 2.41041 3.99716 2.27453C5.25503 1.83337 6.65523 2.10521 7.75329 3.1409C9.2865 4.57662 9.14922 6.88954 7.92527 8.42681C6.3787 10.7186 3.72078 13.916 7.40089 16.7803C8.06255 17.2952 8.55343 17.7199 10.6377 18.3216C9.27454 18.5724 8.01059 18.4944 6.60368 18.1354C5.60856 17.5743 4.04395 16.3728 3.51167 14.75C2.70712 12.2892 4.92808 8.61046 6.00146 7.19362C7.47509 5.23283 5.09061 3.11012 3.33508 5.47984C2.41737 6.71491 0.811991 10.2096 1.36987 12.8019C1.69605 14.2719 2.13085 15.3434 3.85484 16.8153C3.53516 16.6269 3.22472 16.4131 2.92357 16.1739C-1.08195 12.4465 -0.617224 6.68309 2.18239 3.59359Z" fill="white"/>
<path d="M15.8176 15.3596C15.7058 15.5001 15.5874 15.6351 15.469 15.7701C15.4636 15.7768 15.4516 15.7782 15.4463 15.7848C15.4357 15.7982 15.4183 15.8063 15.4077 15.8197L15.3971 15.833C15.3145 15.9093 15.2266 15.9922 15.1253 16.0645C14.7669 16.3364 14.395 16.5428 14.0028 16.6787C12.7449 17.1198 11.3447 16.848 10.2467 15.8124C8.71347 14.3766 8.85076 12.0637 10.0746 10.5264C11.6213 8.2346 14.2791 5.03726 10.5991 2.17295C9.93742 1.65801 9.44654 1.23336 7.3623 0.63163C8.72543 0.380769 9.98939 0.458817 11.3962 0.817799C12.3914 1.37897 13.956 2.5804 14.4882 4.2032C15.2928 6.66404 13.0719 10.3428 11.9985 11.7596C10.5248 13.7204 12.9094 15.8431 14.6649 13.4734C15.5826 12.2384 17.188 8.74359 16.6301 6.15134C16.3039 4.68135 15.8691 3.60979 14.1451 2.13792C14.4648 2.32632 14.7753 2.54012 15.0764 2.7793C19.0819 6.50668 18.6172 12.2701 15.8176 15.3596Z" fill="white"/>
</svg>
