<svg width="17" height="16" viewBox="0 0 17 16" fill="none" xmlns="http://www.w3.org/2000/svg">
<path fill-rule="evenodd" clip-rule="evenodd" d="M1.08944 1.91C0.5 2.87189 0.5 4.18124 0.5 6.8V9.2C0.5 11.8188 0.5 13.1281 1.08944 14.09C1.41926 14.6282 1.87178 15.0808 2.41 15.4106C3.37188 16 4.68124 16 7.3 16H9.7C12.3187 16 13.6281 16 14.59 15.4106C15.1282 15.0808 15.5807 14.6282 15.9105 14.09C16.5 13.1281 16.5 11.8188 16.5 9.2V6.8C16.5 4.18124 16.5 2.87189 15.9105 1.91C15.5807 1.37178 15.1282 0.919264 14.59 0.589436C13.6281 0 12.3187 0 9.7 0H7.3C4.68124 0 3.37188 0 2.41 0.589436C1.87178 0.919264 1.41926 1.37178 1.08944 1.91ZM6.20616 8.50246V12.4H4.5V3.6H6.20616V7.32098L9.64384 3.6H11.764V3.65058L7.74432 7.86154L12.1 12.2989V12.4H9.9934L6.20616 8.50246Z" fill="white"/>
</svg>
