<svg width="16" height="16" viewBox="0 0 16 16" fill="none" xmlns="http://www.w3.org/2000/svg">
<path fill-rule="evenodd" clip-rule="evenodd" d="M10.0823 0.0170862C10.0725 0.0288208 10.0101 0.12626 9.94385 0.233603C9.52165 0.916468 8.93588 1.74031 8.31759 2.52075C8.18278 2.69098 8.16126 2.71533 8.14525 2.71575C8.13633 2.71596 7.83551 2.33564 7.61449 2.04469C7.1333 1.41122 6.72794 0.828846 6.38882 0.283774C6.25543 0.0693674 6.23239 0.0384329 6.20606 0.0384329C6.13751 0.0384329 4.90907 1.14022 4.15025 1.88227C4.03737 1.99266 4.03719 1.99197 4.1977 2.09382C5.04339 2.63055 6.94273 4.13867 6.88377 4.2266C6.76582 4.40256 4.79303 6.46395 4.55673 6.65814L4.5242 6.68489L4.49963 6.65341C4.4861 6.6361 4.37793 6.4992 4.25924 6.34922C3.58977 5.50321 2.96468 4.61313 2.54288 3.90524C2.42409 3.7059 2.41952 3.70029 2.38946 3.71711C2.29279 3.77117 0.565623 5.83409 0.528626 5.93967C0.520174 5.96381 0.535211 5.97828 0.645758 6.05231C1.17634 6.40764 1.80063 6.87569 2.36737 7.3431C2.70847 7.62443 3.10327 7.9655 3.1031 7.9788C3.10175 8.07636 1.38698 9.42804 0.634084 9.92503C0.515843 10.0031 0.500327 10.0168 0.5 10.0436C0.499265 10.106 2.33143 12.2914 2.38441 12.2914C2.40575 12.2914 2.42276 12.2674 2.53136 12.0841C2.95053 11.3764 3.58197 10.4785 4.31564 9.54691C4.41339 9.42275 4.50348 9.31384 4.51584 9.30479C4.54092 9.28648 4.60172 9.34365 5.2104 9.95713C5.72933 10.4802 6.84988 11.6773 6.89064 11.7522C6.90398 11.7768 6.87985 11.7999 6.51589 12.1107C5.65828 12.8432 4.85529 13.4531 4.15399 13.9043C3.98986 14.01 3.98759 13.996 4.20302 14.209C4.79729 14.7968 6.05088 15.9382 6.16071 15.9916C6.19435 16.008 6.1747 16.034 6.37881 15.7026C6.75833 15.0866 7.29618 14.3273 7.8979 13.5583C8.02199 13.3997 8.1309 13.2669 8.13982 13.2633C8.20632 13.2367 9.29221 14.7096 9.82443 15.5484C9.94148 15.7329 10.0456 15.8962 10.0557 15.9113C10.0968 15.9726 10.2966 15.81 11.2347 14.951C12.2473 14.0238 12.2768 13.99 12.1445 13.904C11.7654 13.6582 11.1525 13.2172 10.7444 12.897C10.1375 12.4207 9.41344 11.8054 9.41344 11.766C9.41344 11.7024 10.751 10.282 11.5294 9.51892C11.6594 9.39142 11.7659 9.28292 11.7659 9.27784C11.7659 9.25918 11.2123 8.59556 10.8637 8.19613L10.6794 7.98514L10.852 7.78702C11.0906 7.51315 11.3418 7.21651 11.5672 6.94259C11.7991 6.66069 11.7442 6.66418 12.007 6.91462C12.2976 7.19158 12.6646 7.53007 12.9362 7.77178C13.1975 8.00422 13.1928 7.97044 12.9893 8.15017C12.6278 8.46973 11.7775 9.26148 11.7775 9.27868C11.7775 9.28251 11.8255 9.34573 11.8843 9.41927C12.649 10.3772 13.3044 11.3015 13.7518 12.0526C13.8974 12.2971 13.8862 12.2906 13.9818 12.1862C14.5701 11.5438 15.7816 10.0865 15.7818 10.021C15.7819 10.0083 15.7116 9.954 15.5924 9.87454C14.8847 9.4027 13.2019 8.07169 13.2019 7.98367C13.2019 7.93493 14.2463 7.07327 14.8698 6.60769C15.1064 6.43102 15.668 6.03684 15.761 5.98219C15.8422 5.93446 15.8487 5.94875 15.6063 5.64146C15.1429 5.05409 14.3883 4.16229 13.994 3.73613C13.9088 3.64408 13.9228 3.6331 13.7391 3.93662C13.3002 4.66193 12.7538 5.44213 12.1036 6.27168C11.8591 6.58366 11.7772 6.68227 11.766 6.67797C11.689 6.64838 9.42737 4.28595 9.39854 4.2051C9.39241 4.188 10.0505 3.62615 10.4875 3.27544C11.0839 2.7967 11.5934 2.42566 12.1801 2.04256C12.2396 2.00371 12.2678 1.97767 12.2678 1.9619C12.2678 1.90531 11.0058 0.743202 10.2743 0.126297C10.1064 -0.0152877 10.1083 -0.0142265 10.0823 0.0170862ZM8.28194 2.89585C8.54064 3.21645 9.11241 3.89149 9.29868 4.09619C9.39638 4.20347 9.40606 4.1841 9.1303 4.43161C8.75567 4.76786 8.16948 5.3164 8.16085 5.33872C8.15736 5.3478 8.16997 5.36064 8.53179 5.7174C9.25384 6.42939 10.6685 7.93013 10.6685 7.98409C10.6685 8.0187 9.66127 9.10758 9.09256 9.68785C8.79327 9.9932 8.25269 10.5299 8.17331 10.6005L8.14762 10.6233L7.89394 10.3748C7.22611 9.72058 6.48622 8.94749 5.8602 8.24982L5.62256 7.985L5.76097 7.83013C6.45704 7.05098 7.28367 6.18665 7.98035 5.50946C8.06545 5.42677 8.13508 5.35235 8.13508 5.34408C8.13508 5.32041 7.71149 4.91861 7.18707 4.44483C7.04773 4.31895 6.93049 4.21048 6.92654 4.2038C6.92258 4.1971 6.9976 4.10249 7.09325 3.99355C7.34754 3.70392 7.64046 3.35832 7.90466 3.03614C8.17791 2.70304 8.13828 2.71777 8.28194 2.89585ZM4.71744 6.92208C4.96534 7.22277 5.2133 7.5158 5.42932 7.76342C5.64848 8.01466 5.64342 7.95875 5.46555 8.16326C5.22338 8.44166 4.96672 8.74465 4.74532 9.01337C4.49743 9.31426 4.5576 9.30583 4.31468 9.07395C4.01481 8.78768 3.70111 8.49786 3.40973 8.23784C3.09459 7.95659 3.09262 8.0155 3.42725 7.71565C3.73101 7.44345 4.13306 7.07097 4.36997 6.84225C4.45345 6.76166 4.52577 6.69814 4.53069 6.70108C4.53562 6.70401 4.61966 6.80347 4.71744 6.92208ZM8.31174 10.781C8.54711 11.0049 8.92084 11.3504 9.15948 11.5647C9.40947 11.7892 9.39896 11.7555 9.26616 11.9075C9.03059 12.177 8.60533 12.6786 8.39788 12.9319C8.277 13.0794 8.17136 13.2044 8.16321 13.2095C8.14191 13.2229 8.11663 13.1957 7.87674 12.9014C7.64534 12.6176 7.27785 12.1842 7.05713 11.9349C6.98117 11.8491 6.92075 11.7738 6.92287 11.7678C6.92498 11.7615 7.0318 11.6623 7.16021 11.547C7.42838 11.3064 7.79714 10.965 8.00082 10.7689C8.16969 10.6061 8.12617 10.6045 8.31174 10.781Z" fill="white"/>
</svg>
