<?xml version="1.0" encoding="UTF-8"?>
<svg width="41px" height="40px" viewBox="0 0 41 40" version="1.1" xmlns="http://www.w3.org/2000/svg" xmlns:xlink="http://www.w3.org/1999/xlink">
    <title>masters2</title>
    <g id="Page-1" stroke="none" stroke-width="1" fill="none" fill-rule="evenodd">
        <g id="SLICES" transform="translate(-470.817360, 0.000000)"></g>
        <g id="Masters1" transform="translate(1.316416, 2.942871)">
            <g id="Masters" stroke="#121212" stroke-width="2">
                <g id="Developers-handoff-OLD-Copy">
                    <rect id="Rectangle" x="1" y="1" width="35.5" height="32.0571289" rx="4"></rect>
                </g>
            </g>
            <g id="noun_template_1290654-copy" transform="translate(5.249667, 12.162188)" fill="#000000" fill-rule="nonzero">
                <g id="Group">
                    <g>
                        <polygon id="Path" points="1.60063944 7.63836018 0 7.63836018 0 6.03794185 1.60063944 6.03993187"></polygon>
                        <polygon id="Shape" points="1.5984283 4.55869364 0 4.55869364 0 3.07966654 1.5984283 3.07966654"></polygon>
                        <polygon id="Path" points="1.5984283 1.60041832 0 1.60041832 0 0 1.60063944 0"></polygon>
                        <path d="M23.6075179,1.5984283 L22.0517644,1.5984283 L22.0517644,0 L23.6075179,0 L23.6075179,1.5984283 Z M20.4955688,1.5984283 L18.9398153,1.5984283 L18.9398153,0 L20.4955688,0 L20.4955688,1.5984283 Z M17.3838408,1.5984283 L15.8280874,1.5984283 L15.8280874,0 L17.3838408,0 L17.3838408,1.5984283 Z M14.2718917,1.5984283 L12.7161383,1.5984283 L12.7161383,0 L14.2718917,0 L14.2718917,1.5984283 Z M11.1601637,1.5984283 L9.60396809,1.5984283 L9.60396809,0 L11.1601637,0 L11.1601637,1.5984283 Z M8.04821466,1.5984283 L6.49246123,1.5984283 L6.49246123,0 L8.04821466,0 L8.04821466,1.5984283 Z M4.93648669,1.5984283 L3.38029103,1.5984283 L3.38029103,0 L4.93648669,0 L4.93648669,1.5984283 L4.93648669,1.5984283 Z" id="Shape"></path>
                        <polygon id="Path" points="26.9875878 1.60041832 25.3871695 1.5984283 25.3871695 0 26.9875878 0"></polygon>
                        <polygon id="Shape" points="26.9875878 4.55869364 25.3891595 4.55869364 25.3891595 3.07966654 26.9875878 3.07966654"></polygon>
                        <polygon id="Path" points="26.9875878 7.63836018 25.3871695 7.63836018 25.3893806 6.03794185 26.9875878 6.03794185"></polygon>
                        <path d="M23.6075179,7.63836018 L22.0513222,7.63836018 L22.0513222,6.03993187 L23.6075179,6.03993187 L23.6075179,7.63836018 Z M20.4955688,7.63836018 L18.9395942,7.63836018 L18.9395942,6.03993187 L20.4955688,6.03993187 L20.4955688,7.63836018 Z M17.3838408,7.63836018 L15.8278663,7.63836018 L15.8278663,6.03993187 L17.3838408,6.03993187 L17.3838408,7.63836018 Z M14.2718917,7.63836018 L12.7156961,7.63836018 L12.7156961,6.03993187 L14.2718917,6.03993187 L14.2718917,7.63836018 Z M11.1601637,7.63836018 L9.60396809,7.63836018 L9.60396809,6.03993187 L11.1601637,6.03993187 L11.1601637,7.63836018 Z M8.04799355,7.63836018 L6.49224012,7.63836018 L6.49224012,6.03993187 L8.04799355,6.03993187 L8.04799355,7.63836018 Z M4.93648669,7.63836018 L3.38029103,7.63836018 L3.38029103,6.03993187 L4.93648669,6.03993187 L4.93648669,7.63836018 L4.93648669,7.63836018 Z" id="Shape"></path>
                    </g>
                    <g transform="translate(0.000000, 10.288983)" id="Shape">
                        <path d="M0,0 L0,6.60128926 L8.10530829,6.60128926 L8.10530829,0 L0,0 Z M6.90304335,5.38916016 L1.20243128,5.38916016 L1.20243128,1.22314453 L6.90287701,1.22314453 L6.90287701,5.38916016 L6.90304335,5.38916016 Z"></path>
                        <path d="M9.44147241,0 L9.44147241,6.60128926 L17.5467807,6.60128926 L17.5467807,0 L9.44147241,0 Z M16.3445158,5.38916016 L10.6439037,5.38916016 L10.6439037,1.22314453 L16.3445158,1.22314453 L16.3445158,5.38916016 Z"></path>
                        <path d="M18.8827785,0 L18.8827785,6.60128926 L26.9875878,6.60128926 L26.9875878,0 L18.8827785,0 Z M25.7853228,5.38916016 L20.0852098,5.38916016 L20.0852098,1.22314453 L25.7853228,1.22314453 L25.7853228,5.38916016 Z"></path>
                    </g>
                </g>
            </g>
            <line x1="0.429553295" y1="8.59407817" x2="35.8832914" y2="8.59407817" id="Rectangle-Copy-2" stroke="#121212" stroke-width="2"></line>
            <circle id="Oval" fill="#121212" cx="5.29055973" cy="5.01530331" r="1.1066119"></circle>
            <circle id="Oval" fill="#121212" cx="9.29055973" cy="5.01530331" r="1.1066119"></circle>
            <circle id="Oval" fill="#121212" cx="13.2905597" cy="5.01530331" r="1.1066119"></circle>
        </g>
    </g>
</svg>