<svg width="17" height="16" viewBox="0 0 17 16" fill="none" xmlns="http://www.w3.org/2000/svg">
<path d="M15.7033 0.583008L9.46021 5.21987L10.6147 2.48418L15.7033 0.583008Z" fill="#939393" stroke="#939393" stroke-width="0.0609153" stroke-linecap="round" stroke-linejoin="round"/>
<path d="M1.29066 0.583008L7.4836 5.26379L6.38556 2.48418L1.29066 0.583008ZM13.4569 11.3312L11.7942 13.8787L15.3518 14.8575L16.3746 11.3877L13.4569 11.3312ZM0.631836 11.3877L1.64831 14.8575L5.20595 13.8787L3.54321 11.3312L0.631836 11.3877Z" fill="#F3F3F3" stroke="#F3F3F3" stroke-width="0.0609153" stroke-linecap="round" stroke-linejoin="round"/>
<path d="M5.00529 7.02728L4.01392 8.52689L7.54646 8.68375L7.42097 4.88767L5.00529 7.02728ZM11.9888 7.02728L9.54176 4.84375L9.46019 8.68375L12.9865 8.52689L11.9888 7.02728ZM5.20607 13.879L7.32686 12.8438L5.4947 11.4132L5.20607 13.879ZM9.66725 12.8438L11.7943 13.879L11.4994 11.4132L9.66725 12.8438Z" fill="#F3F3F3" stroke="#F3F3F3" stroke-width="0.0609153" stroke-linecap="round" stroke-linejoin="round"/>
<path d="M11.794 13.8781L9.66699 12.8428L9.8364 14.2294L9.81758 14.813L11.794 13.8781ZM5.20581 13.8781L7.18228 14.813L7.16973 14.2294L7.3266 12.8428L5.20581 13.8781Z" fill="#D3D3D3" stroke="#D3D3D3" stroke-width="0.0609153" stroke-linecap="round" stroke-linejoin="round"/>
<path d="M7.21399 10.4961L5.44458 9.97528L6.69321 9.4043L7.21399 10.4961ZM9.78027 10.4961L10.3011 9.4043L11.556 9.97528L9.78027 10.4961Z" fill="#414141" stroke="#414141" stroke-width="0.0609153" stroke-linecap="round" stroke-linejoin="round"/>
<path d="M5.2062 13.8785L5.50738 11.3311L3.54346 11.3875L5.2062 13.8785ZM11.4933 11.3311L11.7944 13.8785L13.4572 11.3875L11.4933 11.3311ZM12.9866 8.52637L9.46032 8.68323L9.78659 10.4966L10.3074 9.4048L11.5623 9.97578L12.9866 8.52637ZM5.44463 9.97578L6.69954 9.4048L7.21405 10.4966L7.54659 8.68323L4.01405 8.52637L5.44463 9.97578Z" fill="#B4B4B4" stroke="#B4B4B4" stroke-width="0.0609153" stroke-linecap="round" stroke-linejoin="round"/>
<path d="M4.01392 8.52637L5.4947 11.4126L5.4445 9.97578L4.01392 8.52637ZM11.5622 9.97578L11.4994 11.4126L12.9865 8.52637L11.5622 9.97578ZM7.54646 8.68323L7.21392 10.4966L7.62803 12.6362L7.72215 9.81892L7.54646 8.68323ZM9.46019 8.68323L9.29078 9.81264L9.36607 12.6362L9.78646 10.4966L9.46019 8.68323Z" fill="#7E7E7E" stroke="#7E7E7E" stroke-width="0.0609153" stroke-linecap="round" stroke-linejoin="round"/>
<path d="M9.78654 10.4973L9.36615 12.637L9.66733 12.844L11.4995 11.4134L11.5622 9.97656L9.78654 10.4973ZM5.44458 9.97656L5.49478 11.4134L7.32693 12.844L7.62811 12.637L7.21399 10.4973L5.44458 9.97656Z" fill="#D9D9D9" stroke="#D9D9D9" stroke-width="0.0609153" stroke-linecap="round" stroke-linejoin="round"/>
<path d="M9.81758 14.8138L9.8364 14.2303L9.67954 14.0922H7.31405L7.16973 14.2303L7.18228 14.8138L5.20581 13.8789L5.89601 14.4436L7.29522 15.4162H9.69836L11.1038 14.4436L11.794 13.8789L9.81758 14.8138Z" fill="#C2C2C2" stroke="#C2C2C2" stroke-width="0.0609153" stroke-linecap="round" stroke-linejoin="round"/>
<path d="M9.66742 12.8438L9.36624 12.6367H7.6282L7.32703 12.8438L7.17017 14.2304L7.31448 14.0924H9.67997L9.83683 14.2304L9.66742 12.8438Z" fill="#161616" stroke="#161616" stroke-width="0.0609153" stroke-linecap="round" stroke-linejoin="round"/>
<path d="M15.9667 5.52105L16.5 2.96105L15.7031 0.583008L9.66706 5.06301L11.9886 7.02693L15.2702 7.98693L15.998 7.13987L15.6843 6.91399L16.1863 6.45595L15.7973 6.15477L16.2992 5.77203L15.9667 5.52105ZM0.5 2.96105L1.03333 5.52105L0.69451 5.77203L1.19647 6.15477L0.813726 6.45595L1.31569 6.91399L1.00196 7.13987L1.72353 7.98693L5.0051 7.02693L7.32667 5.06301L1.29059 0.583008L0.5 2.96105Z" fill="#AAAAAA" stroke="#AAAAAA" stroke-width="0.0609153" stroke-linecap="round" stroke-linejoin="round"/>
<path d="M15.2703 7.98712L11.9887 7.02712L12.9863 8.52673L11.4993 11.413L13.4569 11.3879H16.3746L15.2703 7.98712ZM5.00517 7.02712L1.7236 7.98712L0.631836 11.3879H3.54321L5.49458 11.413L4.0138 8.52673L5.00517 7.02712ZM9.46007 8.68359L9.66713 5.0632L10.6209 2.48438H6.38556L7.32674 5.0632L7.54635 8.68359L7.62164 9.82555L7.62791 12.6365H9.36595L9.3785 9.82555L9.46007 8.68359Z" fill="#D9D9D9" stroke="#D9D9D9" stroke-width="0.0609153" stroke-linecap="round" stroke-linejoin="round"/>
</svg>
