<svg width="14" height="16" viewBox="0 0 14 16" fill="none" xmlns="http://www.w3.org/2000/svg">
<g clip-path="url(#clip0_4045_13587)">
<path d="M7.16043 15.7749C7.16043 15.7749 8.14411 15.7749 8.80395 15.0805C9.57163 14.3269 9.22603 13.4501 10.3137 12.5388C11.3544 11.6757 12.6657 12.2895 12.6657 12.2895C13.571 10.4181 13.0782 8.24115 13.0782 8.24115C14.6193 4.06899 13.3374 1.08371 13.0014 0.21875C11.898 1.80915 10.516 2.91059 8.88235 3.64787C8.31499 3.48787 7.73355 3.40275 7.16043 3.40883C6.58923 3.40275 6.00587 3.48787 5.43851 3.64787C3.80683 2.90835 2.42284 1.80883 1.31916 0.21907C0.983476 1.08371 -0.298444 4.06899 1.24268 8.24115C1.24268 8.24115 0.749874 10.4181 1.65516 12.2895C1.65516 12.2895 2.96652 11.676 4.00715 12.5388C5.09675 13.4501 4.74955 14.3269 5.51691 15.0802C6.17675 15.7749 7.16043 15.7749 7.16043 15.7749Z" fill="#F7F7F7"/>
<path d="M5.94135 11.1414C5.89975 9.75579 4.57655 9.31035 3.67352 9.89371C3.67352 9.89371 3.81495 10.4889 4.47447 10.7887C5.01239 11.0339 5.24407 10.7055 5.94135 11.1414ZM1.52728 1.52539C0.995437 3.45179 1.2252 5.88795 2.06552 7.66203C2.92536 7.03419 3.82871 6.06395 4.30967 5.03739C3.17688 4.17243 2.22616 3.35035 1.52728 1.52539ZM8.37975 11.1414C8.42135 9.75579 9.74455 9.31035 10.6476 9.89371C10.6476 9.89371 10.5061 10.4889 9.84663 10.7887C9.30839 11.0339 9.07671 10.7055 8.37975 11.1414ZM12.7935 1.52539C13.3257 3.45179 13.0959 5.88795 12.2556 7.66203C11.3957 7.03419 10.4924 6.06395 10.0114 5.03739C11.1442 4.17243 12.0946 3.35035 12.7935 1.52539ZM7.16055 15.7004C7.63319 15.7004 8.01655 15.3519 8.01655 14.9228C8.01655 14.4931 7.63319 14.1449 7.16055 14.1449C6.68791 14.1449 6.30455 14.4931 6.30455 14.9225C6.30455 15.3519 6.68791 15.7004 7.16055 15.7004Z" fill="#202137"/>
</g>
<defs>
<clipPath id="clip0_4045_13587">
<rect width="13.44" height="16" fill="white" transform="translate(0.5)"/>
</clipPath>
</defs>
</svg>
