<?xml version="1.0" encoding="UTF-8"?>
<svg width="41px" height="40px" viewBox="0 0 41 40" version="1.1" xmlns="http://www.w3.org/2000/svg" xmlns:xlink="http://www.w3.org/1999/xlink">
    <title>auto-resize-ui-components-dark-wireframe-tool</title>
    <g id="Page-1" stroke="none" stroke-width="1" fill="none" fill-rule="evenodd">
        <g id="auto-resize-ui-components" transform="translate(4.955322, 4.973145)">
            <path d="M17.4635647,1 L26.5546292,1 C28.7637682,1 30.5546292,2.790861 30.5546292,5 L30.5546292,25.5 C30.5546292,27.709139 28.7637682,29.5 26.5546292,29.5 L4.05462915,29.5 C1.84549015,29.5 0.0546291534,27.709139 0.0546291534,25.5 L0.0546291534,18.5230076 L0.0546291534,18.5230076" id="Rectangle" stroke="#121212" stroke-width="2" transform="translate(15.304629, 15.250000) rotate(-90.000000) translate(-15.304629, -15.250000) "></path>
            <rect id="Rectangle" stroke="#121212" stroke-width="2" x="1" y="16.7407211" width="13.8090836" height="13.8090836"></rect>
            <path d="M25.8286626,10.0601229 L15.3967688,10.7291576 L17.9097789,8.21614753 C18.1315583,7.99583688 18.2534635,7.69768315 18.2446511,7.3951232 C18.2373074,7.11753179 18.1242146,6.86637766 17.9244663,6.68719167 C17.696812,6.46100607 17.4074706,6.33910085 17.1151919,6.33910085 L17.0887546,6.33910085 C16.8111632,6.34644454 16.5585403,6.46100607 16.3793543,6.66075439 L16.3661357,6.67397303 L11.9481729,11.0934045 C11.7263935,11.3137152 11.6044883,11.6118689 11.6133007,11.9144288 C11.6206444,12.1920203 11.7337372,12.4431744 11.9334855,12.6223604 L16.3661357,17.0550105 C16.5864463,17.2753211 16.8508191,17.3913514 17.1886287,17.3885208 C17.4647514,17.382539 17.7173743,17.2679775 17.8965603,17.0682291 C18.1315583,16.8346999 18.2534635,16.5350774 18.2446511,16.2339862 C18.2373074,15.9563948 18.1242146,15.7037719 17.9244663,15.5260546 L15.4158624,12.9410764 L25.8286626,12.2720418 C25.8286626,12.2720418 25.8286626,10.0601229 25.8286626,10.0601229 Z" id="Path" fill="#121212" transform="translate(18.720758, 11.863811) rotate(-225.000000) translate(-18.720758, -11.863811) "></path>
        </g>
        <g id="SLICES" transform="translate(-152.817360, -148.000000)"></g>
    </g>
</svg>