<?xml version="1.0" encoding="UTF-8"?>
<svg width="41px" height="40px" viewBox="0 0 41 40" version="1.1" xmlns="http://www.w3.org/2000/svg" xmlns:xlink="http://www.w3.org/1999/xlink">
    <title>liquid-layouts-wireframe-tool</title>
    <defs>
        <polygon id="path-1" points="0 0 65 0 65 106 0 106"></polygon>
    </defs>
    <g id="Page-1" stroke="none" stroke-width="1" fill="none" fill-rule="evenodd">
        <g id="SLICES" transform="translate(-202.817360, -148.000000)"></g>
        <g id="Screenshot-2021-11-17-at-09.56.18" transform="translate(6.998069, 37.851039)">
            <mask id="mask-2" fill="white">
                <use xlink:href="#path-1"></use>
            </mask>
            <g id="Mask"></g>
        </g>
        <g id="liquid-layouts" transform="translate(2.415364, 3.000244)">
            <circle id="Oval" stroke="#121212" stroke-width="1.7" fill="#FFFFFF" cx="4.7" cy="4.7" r="3.85"></circle>
            <circle id="Oval-Copy-4" stroke="#121212" stroke-width="1.7" fill="#FFFFFF" cx="4.7" cy="29.7620117" r="3.85"></circle>
            <circle id="Oval-Copy-3" stroke="#121212" stroke-width="1.7" fill="#FFFFFF" cx="31.0154297" cy="4.7" r="3.85"></circle>
            <circle id="Oval-Copy-5" stroke="#121212" stroke-width="1.7" fill="#FFFFFF" cx="31.0154297" cy="29.7620117" r="3.85"></circle>
            <text id="%" font-family="Helvetica-Bold, Helvetica" font-size="16.129613" font-weight="bold" fill="#000000">
                <tspan x="10.9444465" y="22.9997559">%</tspan>
            </text>
            <g id="Group" transform="translate(4.136158, 3.487628)" fill="#000000" fill-rule="nonzero">
                <path d="M20.6840457,1.5984283 L19.1282922,1.5984283 L19.1282922,0 L20.6840457,0 L20.6840457,1.5984283 Z M17.5720966,1.5984283 L16.0163432,1.5984283 L16.0163432,0 L17.5720966,0 L17.5720966,1.5984283 Z M14.4603686,1.5984283 L12.904173,1.5984283 L12.904173,0 L14.4603686,0 L14.4603686,1.5984283 Z M11.3484195,1.5984283 L9.79266611,1.5984283 L9.79266611,0 L11.3484195,0 L11.3484195,1.5984283 Z M8.23669156,1.5984283 L6.68049591,1.5984283 L6.68049591,0 L8.23669156,0 L8.23669156,1.5984283 L8.23669156,1.5984283 Z" id="Shape"></path>
                <path d="M7.80098903,14.2471099 L6.24523561,14.2471099 L6.24523561,12.6486816 L7.80098903,12.6486816 L7.80098903,14.2471099 Z M4.68903995,14.2471099 L3.13328652,14.2471099 L3.13328652,12.6486816 L4.68903995,12.6486816 L4.68903995,14.2471099 Z M1.57731198,14.2471099 L0.0211163235,14.2471099 L0.0211163235,12.6486816 L1.57731198,12.6486816 L1.57731198,14.2471099 Z M-1.53463711,14.2471099 L-3.09039053,14.2471099 L-3.09039053,12.6486816 L-1.53463711,12.6486816 L-1.53463711,14.2471099 Z M-4.64636508,14.2471099 L-6.20256073,14.2471099 L-6.20256073,12.6486816 L-4.64636508,12.6486816 L-4.64636508,14.2471099 L-4.64636508,14.2471099 Z" id="Shape" transform="translate(0.799214, 13.447896) rotate(-270.000000) translate(-0.799214, -13.447896) "></path>
                <path d="M33.800989,14.2471099 L32.2452356,14.2471099 L32.2452356,12.6486816 L33.800989,12.6486816 L33.800989,14.2471099 Z M30.6890399,14.2471099 L29.1332865,14.2471099 L29.1332865,12.6486816 L30.6890399,12.6486816 L30.6890399,14.2471099 Z M27.577312,14.2471099 L26.0211163,14.2471099 L26.0211163,12.6486816 L27.577312,12.6486816 L27.577312,14.2471099 Z M24.4653629,14.2471099 L22.9096095,14.2471099 L22.9096095,12.6486816 L24.4653629,12.6486816 L24.4653629,14.2471099 Z M21.3536349,14.2471099 L19.7974393,14.2471099 L19.7974393,12.6486816 L21.3536349,12.6486816 L21.3536349,14.2471099 L21.3536349,14.2471099 Z" id="Shape" transform="translate(26.799214, 13.447896) rotate(-270.000000) translate(-26.799214, -13.447896) "></path>
                <path d="M20.6840457,27.9843074 L19.1280711,27.9843074 L19.1280711,26.3858791 L20.6840457,26.3858791 L20.6840457,27.9843074 Z M17.5720966,27.9843074 L16.0159009,27.9843074 L16.0159009,26.3858791 L17.5720966,26.3858791 L17.5720966,27.9843074 Z M14.4603686,27.9843074 L12.904173,27.9843074 L12.904173,26.3858791 L14.4603686,26.3858791 L14.4603686,27.9843074 Z M11.3481984,27.9843074 L9.79244499,27.9843074 L9.79244499,26.3858791 L11.3481984,26.3858791 L11.3481984,27.9843074 Z M8.23669156,27.9843074 L6.68049591,27.9843074 L6.68049591,26.3858791 L8.23669156,26.3858791 L8.23669156,27.9843074 L8.23669156,27.9843074 Z" id="Shape"></path>
            </g>
        </g>
    </g>
</svg>