<svg width="16" height="17" viewBox="0 0 16 17" fill="none" xmlns="http://www.w3.org/2000/svg">
<path d="M15.2826 3.81277C15.1199 3.18556 14.5969 2.55834 13.6556 1.86011C12.9002 1.3039 12.0983 0.984375 11.4591 0.984375C11.3313 0.984375 11.2151 0.996206 11.0989 1.01988C10.8083 1.07905 10.5527 1.29207 10.39 1.61159C10.1924 1.99029 10.1459 2.49917 10.2738 2.80686C10.3202 2.90154 10.3783 3.01987 10.4481 3.12638C9.83215 3.50508 9.48348 3.6116 9.43701 3.62344C11.0408 4.16779 12.3773 5.30391 13.214 6.78321L13.2256 6.64117C13.2605 6.25066 13.3767 5.80093 13.5394 5.3394C13.7021 5.38674 13.8648 5.41042 14.0275 5.41042C14.4575 5.41042 14.8294 5.23289 15.0618 4.91336C15.2942 4.59383 15.3872 4.16779 15.2826 3.81277Z" fill="#DEDEDE"/>
<path d="M13.6099 4.99582C14.6675 5.2917 15.0974 4.46331 14.958 3.90707C14.8069 3.35088 14.3188 2.78282 13.4588 2.14376C12.5988 1.50471 11.7272 1.24435 11.1694 1.3627C10.6115 1.48104 10.4488 2.34495 10.5883 2.67631C10.6464 2.80649 10.7742 2.99582 10.9486 3.20884C10.7278 3.36268 10.5186 3.48103 10.3442 3.58755C11.4134 4.07276 12.3431 4.83017 13.0404 5.77692C13.1218 5.45739 13.238 5.17335 13.3426 4.92484C13.4239 4.93668 13.5169 4.96033 13.6099 4.99582Z" fill="#050914"/>
<path d="M11.8891 2.53433C12.1215 2.62901 12.4237 2.79469 12.7956 3.04323C13.2372 3.33907 13.6207 3.67045 13.8648 3.9308C13.458 4.47515 13.1907 5.22072 13.028 5.74143C13.1094 5.85978 13.2024 5.97814 13.2837 6.09649C13.365 5.80061 13.5045 5.36272 13.6904 4.92488C13.7369 4.93672 13.795 4.93672 13.8531 4.93672C13.9926 4.93672 14.1553 4.91304 14.2831 4.80653C14.3761 4.73551 14.4807 4.60535 14.4691 4.36864C14.4691 4.14382 14.2948 3.85978 13.9345 3.5166C13.6788 3.26805 13.3302 2.99586 12.9815 2.74735C11.9821 2.0728 11.2848 1.88345 10.971 2.20297C10.7618 2.41599 10.7851 2.67635 10.8548 2.8657C10.4829 3.11421 10.1691 3.29174 9.95996 3.41009C10.0994 3.45743 10.2273 3.5166 10.3667 3.57574C10.7386 3.37456 11.2732 3.03139 11.8891 2.53433ZM14.0856 4.22664C14.1204 4.28582 14.132 4.345 14.132 4.38049C14.132 4.487 14.0972 4.52249 14.074 4.54617C14.0275 4.58166 13.9345 4.60535 13.8531 4.60535C13.9229 4.46335 14.0042 4.345 14.0856 4.22664ZM11.2151 2.46333C11.2499 2.42783 11.3429 2.40416 11.494 2.42783C11.3778 2.5225 11.2616 2.60534 11.1453 2.68818C11.1337 2.60534 11.1453 2.5225 11.2151 2.46333Z" fill="#DEDEDE"/>
<path d="M7.55475 2.97266C3.7545 2.97266 0.674805 6.10878 0.674805 9.97859C0.674805 13.8484 3.7545 16.9845 7.55475 16.9845C11.3549 16.9845 14.4346 13.8484 14.4346 9.97859C14.4346 6.10878 11.3433 2.97266 7.55475 2.97266ZM7.55475 16.594C3.96368 16.594 1.05832 13.6354 1.05832 9.97859C1.05832 6.3218 3.96368 3.36321 7.55475 3.36321C11.1458 3.36321 14.0511 6.3218 14.0511 9.97859C14.0511 13.6354 11.1342 16.594 7.55475 16.594Z" fill="#DEDEDE"/>
<path d="M13.7252 9.91895C13.7252 13.3864 10.9593 16.203 7.55423 16.203C4.14912 16.203 1.37158 13.3864 1.37158 9.91895H13.7252Z" fill="url(#paint0_linear_4035_924)"/>
<path opacity="0.6" d="M13.238 9.91895C13.238 13.3036 10.6116 16.0728 7.31104 16.203C7.39241 16.203 7.47374 16.203 7.55507 16.203C10.9602 16.203 13.7261 13.3864 13.7261 9.91895H13.238Z" fill="url(#paint1_linear_4035_924)"/>
<path opacity="0.7" d="M2.24369 9.91895H1.37207C1.37207 13.3864 4.138 16.203 7.54307 16.203C7.69417 16.203 7.83362 16.203 7.97307 16.1912C4.77718 15.9545 2.24369 13.2326 2.24369 9.91895Z" fill="url(#paint2_linear_4035_924)" fill-opacity="0.05"/>
<path d="M13.7136 9.97861C13.7136 9.25672 12.4817 8.84253 10.8431 8.70053C9.65772 8.60582 8.4607 8.72417 7.08936 9.15021C5.90395 9.50523 4.83477 9.44606 4.05614 9.35139C2.32453 9.15021 1.37158 9.12653 1.37158 9.97861C1.37158 11.2094 3.83532 12.7479 7.53097 12.2153C9.40203 11.9431 10.3666 11.3869 11.4707 11.0082C12.6677 10.6058 13.7136 10.6177 13.7136 9.97861Z" fill="#FAFAFA" fill-opacity="0.25"/>
<path d="M9.57668 6.99637C10.1543 6.99637 10.6226 6.51955 10.6226 5.93131C10.6226 5.34307 10.1543 4.86621 9.57668 4.86621C8.99904 4.86621 8.53076 5.34307 8.53076 5.93131C8.53076 6.51955 8.99904 6.99637 9.57668 6.99637Z" fill="white"/>
<path d="M11.2854 7.78906C11.5293 7.78906 11.727 7.58773 11.727 7.33934C11.727 7.09098 11.5293 6.88965 11.2854 6.88965C11.0415 6.88965 10.8438 7.09098 10.8438 7.33934C10.8438 7.58773 11.0415 7.78906 11.2854 7.78906Z" fill="white"/>
<path opacity="0.6" d="M12.8655 5.07874C12.8539 5.07874 12.8422 5.07874 12.8422 5.07874C12.7725 5.0669 12.726 4.99592 12.7376 4.91305C12.8422 4.3687 13.2838 3.84795 13.3071 3.82431C13.3535 3.76513 13.4465 3.76513 13.493 3.81246C13.5511 3.8598 13.5511 3.95446 13.5046 4.00184C13.493 4.01364 13.0862 4.49886 12.9933 4.97223C12.9817 5.04325 12.9236 5.07874 12.8655 5.07874Z" fill="url(#paint3_linear_4035_924)"/>
<path opacity="0.2" d="M7.12571 14.9137C7.30539 14.9137 7.45108 14.7653 7.45108 14.5824C7.45108 14.3993 7.30539 14.251 7.12571 14.251C6.94598 14.251 6.80029 14.3993 6.80029 14.5824C6.80029 14.7653 6.94598 14.9137 7.12571 14.9137Z" fill="white"/>
<path opacity="0.6" d="M6.93874 14.7952C6.81094 14.665 6.81094 14.452 6.93874 14.3219C6.96199 14.2982 6.98525 14.2864 7.00847 14.2627C6.962 14.2745 6.92713 14.2982 6.89227 14.3337C6.76443 14.4639 6.76443 14.6769 6.89227 14.8071C6.99686 14.9136 7.15956 14.9372 7.28741 14.8663C7.17117 14.9136 7.03172 14.8899 6.93874 14.7952Z" fill="url(#paint4_linear_4035_924)"/>
<path opacity="0.3" d="M7.24062 14.4877C7.27913 14.4877 7.31039 14.4559 7.31039 14.4167C7.31039 14.3775 7.27913 14.3457 7.24062 14.3457C7.20211 14.3457 7.1709 14.3775 7.1709 14.4167C7.1709 14.4559 7.20211 14.4877 7.24062 14.4877Z" fill="white"/>
<path opacity="0.2" d="M8.82196 14.7477C9.00168 14.7477 9.14737 14.5993 9.14737 14.4163C9.14737 14.2333 9.00168 14.085 8.82196 14.085C8.64227 14.085 8.49658 14.2333 8.49658 14.4163C8.49658 14.5993 8.64227 14.7477 8.82196 14.7477Z" fill="white"/>
<path opacity="0.6" d="M8.63503 14.6292C8.50719 14.499 8.50719 14.286 8.63503 14.1559C8.65828 14.1322 8.6815 14.1204 8.70475 14.0967C8.65828 14.1085 8.62342 14.1322 8.58856 14.1677C8.46071 14.2979 8.46071 14.5109 8.58856 14.6411C8.69315 14.7476 8.85585 14.7712 8.98366 14.7002C8.86746 14.7476 8.72801 14.7239 8.63503 14.6292Z" fill="url(#paint5_linear_4035_924)"/>
<path opacity="0.3" d="M8.9374 14.3217C8.97591 14.3217 9.00713 14.2899 9.00713 14.2507C9.00713 14.2115 8.97591 14.1797 8.9374 14.1797C8.89889 14.1797 8.86768 14.2115 8.86768 14.2507C8.86768 14.2899 8.89889 14.3217 8.9374 14.3217Z" fill="white"/>
<path opacity="0.2" d="M7.9848 15.5166C8.11959 15.5166 8.22884 15.4053 8.22884 15.2681C8.22884 15.1308 8.11959 15.0195 7.9848 15.0195C7.84998 15.0195 7.74072 15.1308 7.74072 15.2681C7.74072 15.4053 7.84998 15.5166 7.9848 15.5166Z" fill="white"/>
<path opacity="0.6" d="M7.84483 15.4228C7.75185 15.3281 7.75185 15.1624 7.84483 15.0678C7.85644 15.0559 7.8797 15.0441 7.8913 15.0322C7.85644 15.0441 7.83319 15.0678 7.80997 15.0914C7.71699 15.1861 7.71699 15.3518 7.80997 15.4464C7.8913 15.5293 8.0075 15.5411 8.11213 15.482C8.01915 15.5174 7.91456 15.4938 7.84483 15.4228Z" fill="url(#paint6_linear_4035_924)"/>
<path opacity="0.3" d="M8.06604 15.1855C8.09169 15.1855 8.11251 15.1643 8.11251 15.1382C8.11251 15.112 8.09169 15.0908 8.06604 15.0908C8.04036 15.0908 8.01953 15.112 8.01953 15.1382C8.01953 15.1643 8.04036 15.1855 8.06604 15.1855Z" fill="white"/>
<path opacity="0.2" d="M9.4833 15.3398C9.61808 15.3398 9.72734 15.2285 9.72734 15.0913C9.72734 14.954 9.61808 14.8428 9.4833 14.8428C9.34851 14.8428 9.23926 14.954 9.23926 15.0913C9.23926 15.2285 9.34851 15.3398 9.4833 15.3398Z" fill="white"/>
<path opacity="0.6" d="M9.34434 15.245C9.25136 15.1503 9.25136 14.9846 9.34434 14.89C9.35595 14.8781 9.37921 14.8663 9.39082 14.8545C9.35595 14.8663 9.3327 14.89 9.30948 14.9137C9.2165 15.0083 9.2165 15.174 9.30948 15.2687C9.39081 15.3516 9.50701 15.3634 9.61164 15.3042C9.51866 15.3397 9.41407 15.316 9.34434 15.245Z" fill="url(#paint7_linear_4035_924)"/>
<path opacity="0.3" d="M9.56551 15.0078C9.5912 15.0078 9.61202 14.9866 9.61202 14.9604C9.61202 14.9343 9.5912 14.9131 9.56551 14.9131C9.53987 14.9131 9.51904 14.9343 9.51904 14.9604C9.51904 14.9866 9.53987 15.0078 9.56551 15.0078Z" fill="white"/>
<path opacity="0.2" d="M5.74162 14.7948C6.03688 14.7948 6.27621 14.5511 6.27621 14.2504C6.27621 13.9498 6.03688 13.7061 5.74162 13.7061C5.44637 13.7061 5.20703 13.9498 5.20703 14.2504C5.20703 14.5511 5.44637 14.7948 5.74162 14.7948Z" fill="white"/>
<path opacity="0.6" d="M5.43901 14.5943C5.22983 14.3812 5.22983 14.038 5.43901 13.825C5.47387 13.7895 5.50874 13.7658 5.55525 13.7422C5.48552 13.7658 5.4274 13.8132 5.36928 13.8605C5.16011 14.0736 5.16011 14.4167 5.36928 14.6298C5.54364 14.8073 5.81093 14.8428 6.02011 14.7126C5.82254 14.7954 5.59011 14.76 5.43901 14.5943Z" fill="url(#paint8_linear_4035_924)"/>
<path opacity="0.3" d="M5.92723 14.0853C5.99143 14.0853 6.04347 14.0323 6.04347 13.967C6.04347 13.9016 5.99143 13.8486 5.92723 13.8486C5.86307 13.8486 5.81104 13.9016 5.81104 13.967C5.81104 14.0323 5.86307 14.0853 5.92723 14.0853Z" fill="white"/>
<path opacity="0.2" d="M10.5185 13.4579C10.8137 13.4579 11.0531 13.2142 11.0531 12.9135C11.0531 12.6129 10.8137 12.3691 10.5185 12.3691C10.2232 12.3691 9.98389 12.6129 9.98389 12.9135C9.98389 13.2142 10.2232 13.4579 10.5185 13.4579Z" fill="white"/>
<path opacity="0.6" d="M10.2046 13.2564C9.99546 13.0434 9.99546 12.7002 10.2046 12.4872C10.2395 12.4516 10.2744 12.428 10.3209 12.4043C10.2511 12.428 10.193 12.4753 10.1349 12.5226C9.92573 12.7357 9.92573 13.0789 10.1349 13.2919C10.3092 13.4694 10.5765 13.5049 10.7857 13.3747C10.5882 13.4576 10.3673 13.4221 10.2046 13.2564Z" fill="url(#paint9_linear_4035_924)"/>
<path opacity="0.3" d="M10.7036 12.7474C10.7678 12.7474 10.8198 12.6945 10.8198 12.6291C10.8198 12.5637 10.7678 12.5107 10.7036 12.5107C10.6394 12.5107 10.5874 12.5637 10.5874 12.6291C10.5874 12.6945 10.6394 12.7474 10.7036 12.7474Z" fill="white"/>
<defs>
<linearGradient id="paint0_linear_4035_924" x1="6.32343" y1="10.8813" x2="6.80623" y2="15.8541" gradientUnits="userSpaceOnUse">
<stop stop-color="#F4F4F4" stop-opacity="0"/>
<stop offset="0.9952" stop-color="#C8C8C8"/>
</linearGradient>
<linearGradient id="paint1_linear_4035_924" x1="14.3075" y1="10.4704" x2="7.473" y2="16.8132" gradientUnits="userSpaceOnUse">
<stop offset="0.2888" stop-color="white"/>
<stop offset="0.7796" stop-color="white" stop-opacity="0"/>
</linearGradient>
<linearGradient id="paint2_linear_4035_924" x1="1.3773" y1="13.0573" x2="7.98205" y2="13.0573" gradientUnits="userSpaceOnUse">
<stop stop-color="#000292"/>
<stop offset="0.9952" stop-color="#7D00C7"/>
</linearGradient>
<linearGradient id="paint3_linear_4035_924" x1="13.5119" y1="3.76666" x2="12.6023" y2="5.21819" gradientUnits="userSpaceOnUse">
<stop offset="0.2888" stop-color="white"/>
<stop offset="0.7796" stop-color="white" stop-opacity="0"/>
</linearGradient>
<linearGradient id="paint4_linear_4035_924" x1="6.79607" y1="14.5924" x2="7.28776" y2="14.5924" gradientUnits="userSpaceOnUse">
<stop offset="0.2888" stop-color="white"/>
<stop offset="0.7796" stop-color="white" stop-opacity="0"/>
</linearGradient>
<linearGradient id="paint5_linear_4035_924" x1="8.49115" y1="14.4241" x2="8.98283" y2="14.4241" gradientUnits="userSpaceOnUse">
<stop offset="0.2888" stop-color="white"/>
<stop offset="0.7796" stop-color="white" stop-opacity="0"/>
</linearGradient>
<linearGradient id="paint6_linear_4035_924" x1="7.73871" y1="15.2718" x2="8.10785" y2="15.2718" gradientUnits="userSpaceOnUse">
<stop offset="0.2888" stop-color="white"/>
<stop offset="0.7796" stop-color="white" stop-opacity="0"/>
</linearGradient>
<linearGradient id="paint7_linear_4035_924" x1="9.23321" y1="15.0936" x2="9.60231" y2="15.0936" gradientUnits="userSpaceOnUse">
<stop offset="0.2888" stop-color="white"/>
<stop offset="0.7796" stop-color="white" stop-opacity="0"/>
</linearGradient>
<linearGradient id="paint8_linear_4035_924" x1="5.20709" y1="14.2649" x2="6.01003" y2="14.2649" gradientUnits="userSpaceOnUse">
<stop offset="0.2888" stop-color="white"/>
<stop offset="0.7796" stop-color="white" stop-opacity="0"/>
</linearGradient>
<linearGradient id="paint9_linear_4035_924" x1="9.97714" y1="12.9267" x2="10.7801" y2="12.9267" gradientUnits="userSpaceOnUse">
<stop offset="0.2888" stop-color="white"/>
<stop offset="0.7796" stop-color="white" stop-opacity="0"/>
</linearGradient>
</defs>
</svg>
