<svg width="17" height="16" viewBox="0 0 17 16" fill="none" xmlns="http://www.w3.org/2000/svg">
<path fill-rule="evenodd" clip-rule="evenodd" d="M11.7 0H5.3C2.64903 0 0.5 2.14903 0.5 4.8V11.2C0.5 13.851 2.64903 16 5.3 16H11.7C14.351 16 16.5 13.851 16.5 11.2V4.8C16.5 2.14903 14.351 0 11.7 0ZM9.08506 4.62512C9.29526 5.48196 9.22418 6.23568 8.92634 6.3086C8.62846 6.38148 8.21658 5.74596 8.00638 4.88916C7.79618 4.03232 7.86722 3.2786 8.1651 3.2057C8.46294 3.13279 8.87482 3.7683 9.08506 4.62512ZM10.4875 5.6555C11.1645 5.00778 12.0907 4.87622 12.5562 5.36162C13.0217 5.84706 12.8503 6.76562 12.1733 7.41334C11.4964 8.06102 10.5702 8.19262 10.1047 7.70718C9.63914 7.22178 9.81054 6.30322 10.4875 5.6555ZM8.85357 12.7948C9.15145 12.7219 9.21205 11.9256 8.98893 11.0161C8.76581 10.1067 8.34349 9.42854 8.04561 9.50146C7.74773 9.57438 7.68713 10.3707 7.91025 11.2801C8.13337 12.1896 8.55569 12.8677 8.85357 12.7948ZM7.21968 6.7833C7.30444 6.49306 6.67648 6.05566 5.81712 5.80634C4.95776 5.55702 4.19242 5.59022 4.10766 5.88042C4.02291 6.17066 4.65084 6.60806 5.5102 6.85738C6.36956 7.1067 7.13492 7.07354 7.21968 6.7833ZM11.3947 9.08367C12.3068 9.34831 12.9775 9.79811 12.8927 10.0884C12.808 10.3786 11.9999 10.3994 11.0878 10.1347C10.1757 9.87011 9.50499 9.42031 9.58975 9.13007C9.67447 8.83983 10.4826 8.81907 11.3947 9.08367ZM5.22288 9.18096C5.872 8.57344 6.571 8.25712 6.78412 8.47444C6.9972 8.6918 6.64372 9.36048 5.9946 9.968C5.34544 10.5755 4.64644 10.8918 4.43334 10.6745C4.22023 10.4572 4.57372 9.78848 5.22288 9.18096Z" fill="white"/>
</svg>
