<svg width="18" height="16" viewBox="0 0 18 16" fill="none" xmlns="http://www.w3.org/2000/svg">
<g clip-path="url(#clip0_2668_125)">
<path d="M2.12645 16C4.41968 16 6.14307 13.8677 7.17156 12.1827C7.04647 12.5555 6.97696 12.9282 6.97696 13.2861C6.97696 14.2703 7.50512 14.9711 8.54748 14.9711C9.97901 14.9711 11.5078 13.6291 12.3 12.1827C12.2444 12.3914 12.2167 12.5853 12.2167 12.7642C12.2167 13.4501 12.578 13.8826 13.3146 13.8826C15.6357 13.8826 17.9706 9.48368 17.9706 5.63654C17.9706 2.63933 16.5529 0 12.995 0C6.74071 0 0 8.17149 0 13.4501C0 15.5228 1.04238 16 2.12645 16ZM10.8407 5.30849C10.8407 4.56292 11.2299 4.04102 11.7997 4.04102C12.3556 4.04102 12.7448 4.56292 12.7448 5.30849C12.7448 6.05407 12.3556 6.59086 11.7997 6.59086C11.2299 6.59086 10.8407 6.05407 10.8407 5.30849ZM13.815 5.30849C13.815 4.56292 14.2041 4.04102 14.7739 4.04102C15.3299 4.04102 15.719 4.56292 15.719 5.30849C15.719 6.05407 15.3299 6.59086 14.7739 6.59086C14.2041 6.59086 13.815 6.05407 13.815 5.30849Z" fill="#FFFDF8"/>
</g>
<defs>
<clipPath id="clip0_2668_125">
<rect width="18" height="16" fill="white"/>
</clipPath>
</defs>
</svg>
