<svg width="20" height="16" viewBox="0 0 20 16" fill="none" xmlns="http://www.w3.org/2000/svg">
<path d="M3.23707 0.0425385L0.0336373 3.58783C-0.0416107 3.67209 0.0175416 3.8076 0.130414 3.8076H16.3571C16.3921 3.8076 16.4243 3.79396 16.4485 3.76915L19.9421 0.22386C20.0255 0.14124 19.9663 0 19.8508 0H3.33381C3.29619 0 3.26125 0.0152713 3.23707 0.0425385Z" fill="white"/>
<path d="M16.7623 5.75543L19.9657 9.30072C20.0409 9.38498 19.9818 9.52077 19.8689 9.52077H3.64225C3.60731 9.52077 3.57507 9.50687 3.55088 9.48233L0.0545339 5.93677C-0.026089 5.85415 0.0330279 5.71289 0.148587 5.71289H16.6655C16.7031 5.71289 16.7381 5.72843 16.7623 5.75543Z" fill="white"/>
<path d="M3.23707 11.4646L0.0336373 15.0101C-0.0416107 15.0941 0.0175416 15.2299 0.130414 15.2299H16.3571C16.3921 15.2299 16.4243 15.216 16.4485 15.1915L19.9421 11.6462C20.0255 11.5635 19.9663 11.422 19.8508 11.422H3.33381C3.29619 11.422 3.26125 11.4376 3.23707 11.4646Z" fill="white"/>
</svg>
