<svg width="16" height="16" viewBox="0 0 16 16" fill="none" xmlns="http://www.w3.org/2000/svg">
<path d="M8.12273 15.3957C8.29215 15.3957 8.4295 15.531 8.4295 15.6978C8.4295 15.8647 8.29215 16 8.12273 16C7.95328 16 7.81593 15.8647 7.81593 15.6978C7.81593 15.531 7.95328 15.3957 8.12273 15.3957ZM7.78943 0.962343C7.93934 0.974669 8.06046 1.0878 8.08073 1.23446L8.44561 3.87453C8.56819 4.74678 9.62462 5.12469 10.2767 4.53196L13.9327 1.21841C14.0209 1.13848 14.1582 1.14402 14.2395 1.23079C14.314 1.31039 14.3162 1.43226 14.2447 1.51446L11.0566 5.17643C10.4697 5.84939 10.9028 6.90021 11.7975 6.97525L14.6104 7.24526C14.7505 7.25871 14.853 7.38135 14.8393 7.51918C14.828 7.63285 14.7401 7.72466 14.6254 7.74249L11.6696 8.20206C10.8114 8.31855 10.4228 9.33053 10.981 9.98795L12.0201 11.2078C12.1038 11.3061 12.0907 11.4525 11.9908 11.5349C11.9062 11.6047 11.7837 11.6074 11.6959 11.5414L10.415 10.5781C9.72372 10.0604 8.72732 10.5004 8.65426 11.3571L8.37199 14.6983C8.36034 14.8363 8.23716 14.9389 8.09689 14.9274C7.97784 14.9177 7.88163 14.8279 7.86547 14.7114L7.41787 11.484C7.29789 10.6117 6.24149 10.2338 5.58675 10.8265L1.69753 14.353C1.61703 14.4259 1.49162 14.4209 1.41743 14.3417C1.34936 14.269 1.34729 14.1578 1.41261 14.0827L4.80686 10.1821C5.39376 9.50913 4.96337 8.45828 4.06862 8.38327L1.25508 8.11319C1.11499 8.09973 1.0125 7.97709 1.02617 7.83927C1.03745 7.72559 1.12537 7.63378 1.24003 7.61596L4.19385 7.15644C5.05204 7.03995 5.44332 6.02799 4.88512 5.37054L4.17776 4.54017C4.07394 4.41831 4.09021 4.23672 4.21407 4.13459C4.31907 4.04803 4.47105 4.04472 4.57983 4.12661L5.44852 4.78042C6.13976 5.29809 7.13616 4.8581 7.20922 4.00139L7.44288 1.25071C7.45763 1.07692 7.6128 0.94782 7.78943 0.962343ZM0.306784 7.5305C0.476216 7.5305 0.61357 7.66579 0.61357 7.83264C0.61357 7.99951 0.476216 8.1348 0.306784 8.1348C0.137352 8.1348 0 7.99951 0 7.83264C0 7.66579 0.137352 7.5305 0.306784 7.5305ZM15.6932 7.22369C15.8626 7.22369 16 7.35898 16 7.52586C16 7.69273 15.8626 7.82799 15.6932 7.82799C15.5238 7.82799 15.3864 7.69273 15.3864 7.52586C15.3864 7.35898 15.5238 7.22369 15.6932 7.22369ZM7.74514 0C7.91456 0 8.05191 0.135277 8.05191 0.302149C8.05191 0.469022 7.91456 0.6043 7.74514 0.6043C7.57569 0.6043 7.43834 0.469022 7.43834 0.302149C7.43834 0.135277 7.57569 0 7.74514 0Z" fill="white"/>
</svg>
