<svg width="16" height="20" viewBox="0 0 16 20" fill="none" xmlns="http://www.w3.org/2000/svg">
<path fill-rule="evenodd" clip-rule="evenodd" d="M12.8021 8.34127L12.8017 8.3421C13.636 9.36519 14.1347 10.661 14.1347 12.0704C14.1347 13.5008 13.6211 14.8142 12.7643 15.8442L12.6906 15.9329L12.671 15.8202C12.6543 15.7243 12.6348 15.6275 12.6121 15.53C12.1833 13.6874 10.7862 12.1075 8.48675 10.8282C6.93398 9.96664 6.04517 8.92923 5.81181 7.75061C5.6611 6.98843 5.77315 6.22288 5.98968 5.56718C6.20615 4.91168 6.52816 4.36247 6.80173 4.03183L7.69638 2.96194C7.85324 2.77435 8.14682 2.77435 8.30369 2.96194L12.8021 8.34127ZM14.2169 7.27252L8.22161 0.102668C8.10716 -0.0342226 7.89284 -0.0342226 7.77839 0.102668L1.78287 7.2722L1.76352 7.29628C0.660238 8.63519 0 10.3367 0 12.189C0 16.5028 3.58165 20 8 20C12.4184 20 16 16.5028 16 12.189C16 10.3367 15.3398 8.63519 14.2365 7.29628L14.2169 7.27252ZM3.21741 8.31815L3.75392 7.67657L3.77012 7.79492C3.78296 7.88874 3.79853 7.98301 3.81699 8.07766C4.16397 9.85812 5.40349 11.3427 7.47582 12.4924C9.27719 13.4951 10.326 14.648 10.6282 15.9126C10.7543 16.4403 10.7768 16.9595 10.7221 17.4134L10.7188 17.4416L10.6928 17.454C9.87977 17.8424 8.96582 18.0604 7.9998 18.0604C4.61174 18.0604 1.86501 15.3787 1.86501 12.0704C1.86501 10.65 2.37135 9.3449 3.21741 8.31815Z" fill="white"/>
</svg>
