<svg width="19" height="20" viewBox="0 0 19 20" fill="none" xmlns="http://www.w3.org/2000/svg">
<path d="M6.26654 0.558017C8.16349 -0.161892 10.2986 -0.163536 12.2312 0.42817C14.7469 1.2204 16.8707 3.14673 17.9803 5.56451C18.2865 6.25319 18.5797 6.97145 18.6089 7.73739C17.1947 6.90571 15.6444 6.3666 14.0909 5.87515C11.6059 4.96623 9.00424 4.33507 6.65208 3.08592C6.10454 2.7539 5.40635 2.41367 5.25731 1.72171C5.19738 1.12343 5.82105 0.789768 6.26654 0.558017Z" fill="white"/>
<path d="M0.540269 6.37702C1.08943 4.86488 1.99012 3.46122 3.21317 2.42081C3.5242 5.0161 4.6128 7.52427 6.41094 9.41116C8.56708 11.6843 11.6385 13.0797 14.7634 13.0271C16.0042 13.0666 17.2176 12.7757 18.4277 12.5406C17.237 16.9061 12.5214 19.8038 8.15238 19.1069C5.51511 18.765 3.08034 17.1806 1.61105 14.9436C-0.0461504 12.4716 -0.464095 9.18927 0.540269 6.37702Z" fill="white"/>
<path d="M14.0908 5.875C15.6443 6.36644 17.1946 6.90555 18.6088 7.73723L18.7044 7.78818C18.8356 8.78915 18.9312 9.80985 18.7563 10.8125C18.0451 10.5067 17.4684 9.96928 16.8658 9.49427C15.7059 8.51467 14.5217 7.39371 14.0908 5.875Z" fill="#C5C5C5"/>
</svg>
