<?xml version="1.0" encoding="UTF-8"?>
<svg width="41px" height="40px" viewBox="0 0 41 40" version="1.1" xmlns="http://www.w3.org/2000/svg" xmlns:xlink="http://www.w3.org/1999/xlink">
    <title>variables</title>
    <defs>
        <polygon id="path-1" points="3.5857258e-16 0 14 0 14 10 3.5857258e-16 10"></polygon>
        <polygon id="path-3" points="-3.82478295e-15 4.09701859e-15 14 4.09701859e-15 14 10 -3.82478295e-15 10"></polygon>
    </defs>
    <g id="Page-1" stroke="none" stroke-width="1" fill="none" fill-rule="evenodd">
        <g id="SLICES" transform="translate(-404.817360, -148.000000)"></g>
        <g id="variables-icon" transform="translate(3.000000, 2.000000)">
            <g id="Group-3">
                <mask id="mask-2" fill="white">
                    <use xlink:href="#path-1"></use>
                </mask>
                <g id="Clip-2"></g>
                <path d="M0.320929793,5.83367269 L3.89119962,9.65619961 C4.09891193,9.87790401 4.37498696,10 4.66848909,10 C4.9616548,10 5.23658597,9.87812024 5.44180869,9.65764113 C5.64629127,9.44134239 5.76007213,9.14799489 5.76229257,8.83071831 L5.76229257,8.82336661 C5.76229257,8.50601795 5.64958829,8.20921082 5.44443285,7.98714605 L3.75494518,6.17862628 L12.8994679,6.17862628 C13.5063216,6.17862628 14,5.6493755 14,4.99896572 C14,4.34978121 13.5063216,3.82161157 12.8994679,3.82161157 L3.75433961,3.82161157 L5.44039568,2.01359633 C5.6407738,1.80263119 5.75724611,1.49861651 5.75980298,1.17831275 C5.75980298,0.862405608 5.64521469,0.557742248 5.44483657,0.341803893 C5.01756958,-0.114001901 4.32035061,-0.114073977 3.89012304,0.34216427 L0.318843923,4.16649308 L0.311106017,4.17543045 C0.216905422,4.28181397 0.139795507,4.40650467 0.0963959469,4.52074443 C-0.0270068321,4.80688437 -0.0319860063,5.17965913 0.0817948548,5.44259074 C0.140199223,5.59438185 0.22060616,5.72584766 0.320929793,5.83367269" id="Fill-1" fill="#000000" mask="url(#mask-2)"></path>
            </g>
            <g id="Group-6" transform="translate(22.000000, 26.000000)">
                <mask id="mask-4" fill="white">
                    <use xlink:href="#path-3"></use>
                </mask>
                <g id="Clip-5"></g>
                <path d="M13.9060582,4.52676572 C13.8602363,4.40654376 13.7831262,4.28185312 13.6914149,4.17835269 L10.1094291,0.341701042 C9.67967157,-0.114032428 8.982451,-0.113960353 8.55464475,0.342277646 C8.35480446,0.557783431 8.2402159,0.862446625 8.2402159,1.17965096 C8.24277278,1.49865718 8.35917807,1.80267169 8.55874921,2.01262766 L10.2456839,3.82165097 L1.10053461,3.82165097 C0.493679533,3.82165097 -3.82478295e-15,4.34982033 -3.82478295e-15,4.99900448 C-3.82478295e-15,5.64941391 0.493679533,6.1786644 1.10053461,6.1786644 L10.2450783,6.1786644 L8.55511575,7.98775978 C8.35043085,8.20924784 8.23772631,8.5060548 8.23772631,8.82340328 L8.23772631,8.83176404 C8.23994676,9.1480314 8.35372788,9.44137873 8.55747077,9.65688452 C8.76343412,9.87815634 9.03836591,10.000036 9.33153229,10.000036 C9.6250351,10.000036 9.90111076,9.87794012 10.1090254,9.65601961 L13.6793034,5.83349477 C13.7794254,5.72588603 13.8598325,5.59442029 13.915882,5.44825115 C14.0320182,5.17969779 14.0271063,4.80692324 13.9060582,4.52676572" id="Fill-4" fill="#000000" mask="url(#mask-4)"></path>
            </g>
            <path d="M19.1673719,6.26958639 L32.9098075,6.26867572 C33.1537489,6.26867572 33.3778806,6.38966482 33.509455,6.59222399 C33.5690182,6.68400658 33.6035515,6.77943185 33.6148618,6.88376869 C33.6152633,6.89268025 33.6156649,6.90152677 33.6162672,6.90900728 L33.6176057,6.92748088 C33.6183419,6.9376934 33.6192119,6.94797097 33.6192119,6.95831359 L33.6650555,23.8654345 C33.6650555,24.4910652 34.1887432,25 34.8324943,25 C35.4761784,25 36,24.4910652 36,23.8654345 L36,15.6388262 L35.9528179,15.638631 L35.9528179,6.95857378 C35.9528179,6.90777137 35.9514794,6.85683886 35.9488024,6.80681702 C35.8959986,5.79395612 35.3202433,4.88868445 34.4087255,4.38514863 C33.9524982,4.13321811 33.4341644,4 32.9098075,4 L19.1673719,4.00026019 C18.5236877,4.00026019 18,4.50926003 18,5.13495581 C18,5.76058655 18.5236877,6.26958639 19.1673719,6.26958639" id="Fill-7" fill="#000000"></path>
            <path d="M16.817201,30.6764307 L7.69839895,30.6762979 L7.56271238,30.6840665 L3.08369938,30.6840665 C2.68755698,30.6840665 2.3653268,30.3681397 2.3653268,29.9799043 L2.36566585,14.1582655 C2.36566585,13.5195728 1.83505745,13 1.18286683,13 C0.530608401,13 0,13.5195728 0,14.1582655 L0,29.9805683 C0,31.6455252 1.38331136,33 3.08363157,33 L14.7437936,33 L14.8896515,32.9927625 L16.817201,32.9929617 C17.4693916,32.9929617 18,32.4733225 18,31.8346298 C18,31.1960034 17.4693916,30.6764307 16.817201,30.6764307" id="Fill-9" fill="#000000"></path>
            <path d="M23.7454071,25 C24.4606557,25 25,24.4386444 25,23.6942055 C25,23.3570793 24.8840808,23.0449809 24.6352533,22.7120033 L24.6259092,22.6995574 L20.1540696,18.3023626 L24.4081197,14.1897901 L24.4235407,14.1730596 C24.6531573,13.8940821 24.7647638,13.6004823 24.7647638,13.2751899 C24.7647638,12.5481616 24.2380962,12 23.5395755,12 C23.0072883,12 22.6646276,12.3438592 22.4253402,12.6463002 L18.5441395,16.4892125 L14.6334035,12.6156277 C14.3000216,12.1956651 13.9364511,12 13.4898291,12 C12.762884,12 12.2352362,12.5491818 12.2352362,13.3057945 C12.2352362,13.6567267 12.3683406,13.9829033 12.642064,14.303027 L16.8463878,18.3641158 L12.351482,22.8154467 C12.1116718,23.0649758 12,23.3539509 12,23.7248101 C12,24.4398686 12.5381681,25 13.2251884,25 C13.7579329,25 14.100659,24.6556647 14.3400118,24.3529516 L18.4559259,20.2069862 L22.6013099,24.3836242 C22.9348878,24.8040628 23.2986544,25 23.7454071,25" id="Fill-11" fill="#000000"></path>
        </g>
    </g>
</svg>